<svg id="splitsvg" version="1.1" xmlns="http://www.w3.org/2000/svg" xmlns:xlink="http://www.w3.org/1999/xlink" width="1380" height="860"><g id="svgg"><path id="path0" d="M150.770 249.545 C 72.420 327.893,8.155 391.896,7.958 391.774 C 7.189 391.299,7.662 392.134,8.900 393.438 C 16.657 401.609,16.801 401.650,21.291 396.964 C 22.891 395.294,25.160 392.999,26.333 391.864 C 27.505 390.729,31.235 387.010,34.620 383.600 C 41.800 376.367,41.689 376.479,50.800 367.383 C 54.650 363.539,58.340 359.852,59.000 359.190 C 59.660 358.528,63.170 355.030,66.800 351.417 C 70.430 347.804,74.325 343.892,75.457 342.724 C 76.588 341.556,78.808 339.388,80.391 337.907 C 82.330 336.092,83.307 334.869,83.385 334.158 C 83.472 333.365,89.018 327.584,105.649 310.951 L 127.797 288.800 183.905 288.800 L 240.012 288.800 239.906 277.300 L 239.800 265.800 195.700 265.698 C 171.445 265.642,151.600 265.462,151.600 265.297 C 151.600 265.132,159.386 257.212,168.902 247.698 L 186.203 230.400 225.222 230.400 C 255.036 230.400,264.353 230.287,264.720 229.920 C 265.132 229.508,265.499 207.478,265.100 207.107 C 265.045 207.056,252.670 206.921,237.600 206.807 L 210.200 206.600 227.805 188.900 L 245.410 171.200 267.905 171.200 L 290.400 171.200 290.400 159.600 L 290.400 148.000 280.067 148.000 C 274.383 148.000,269.606 147.873,269.451 147.718 C 269.296 147.562,276.414 140.188,285.270 131.330 L 301.371 115.226 297.297 111.161 L 293.224 107.096 150.770 249.545  M -25 0 L -5 0 L -5 20 L -25 20 Z M 405 0 L 425 0 L 425 20 L 405 20 Z" stroke="none" fill="#04a46c" fill-rule="evenodd" transform="translate(30,0)"></path><path id="path1" d="M344.786 55.414 C 316.744 83.456,293.534 106.400,293.208 106.400 C 292.881 106.400,290.855 104.647,288.704 102.505 L 284.794 98.609 268.680 114.720 C 259.816 123.582,252.438 130.704,252.282 130.549 C 252.127 130.394,252.000 125.617,252.000 119.933 L 252.000 109.600 240.200 109.600 L 228.400 109.600 228.400 132.306 L 228.400 155.012 210.900 172.406 L 193.400 189.800 193.200 162.400 L 193.000 135.000 181.400 135.000 L 169.800 135.000 169.698 174.404 L 169.596 213.807 152.216 231.184 C 140.518 242.880,134.765 248.371,134.617 247.980 C 134.496 247.661,134.353 227.780,134.299 203.800 L 134.200 160.200 122.700 160.094 L 111.200 159.988 111.200 216.095 L 111.200 272.203 89.100 294.263 C 76.945 306.396,66.620 316.435,66.155 316.571 C 64.504 317.055,-0.000 381.971,0.000 383.148 C 0.000 384.099,6.269 391.090,7.485 391.495 C 7.676 391.559,71.814 327.620,150.016 249.409 C 228.217 171.199,292.503 107.108,292.873 106.986 C 293.618 106.739,301.600 114.212,301.600 115.156 C 301.600 115.446,294.448 122.819,285.706 131.542 L 269.811 147.400 280.311 147.507 L 290.812 147.613 290.706 159.707 L 290.600 171.800 267.910 171.903 L 245.220 172.007 228.263 188.981 C 216.813 200.443,211.495 206.028,211.886 206.178 C 212.205 206.300,224.400 206.400,238.986 206.400 L 265.507 206.400 265.748 207.300 C 266.151 208.805,266.029 228.671,265.610 229.774 L 265.220 230.800 225.857 230.800 L 186.494 230.800 169.547 247.700 L 152.600 264.600 196.315 264.800 C 234.588 264.975,240.077 265.075,240.412 265.600 C 240.639 265.955,240.755 270.847,240.697 277.600 L 240.600 289.000 184.313 289.101 L 128.026 289.203 106.199 311.054 C 94.194 323.072,84.189 333.246,83.966 333.663 C 83.566 334.410,108.876 360.400,110.003 360.400 C 110.221 360.400,110.400 360.580,110.400 360.800 C 110.400 361.020,110.681 361.200,111.024 361.200 C 111.367 361.200,111.536 361.380,111.400 361.600 C 111.264 361.820,111.298 362.001,111.476 362.002 C 111.654 362.003,112.340 362.504,113.000 363.115 C 113.660 363.726,114.830 364.667,115.600 365.207 C 116.988 366.180,117.474 366.563,119.534 368.300 C 120.120 368.794,120.754 369.199,120.942 369.200 C 121.130 369.200,121.830 369.659,122.496 370.219 C 123.162 370.780,124.437 371.610,125.328 372.065 C 126.220 372.520,127.180 373.097,127.461 373.346 C 128.725 374.468,129.200 374.817,129.200 374.623 C 129.200 374.508,129.875 374.800,130.700 375.272 C 133.959 377.136,138.139 379.200,138.655 379.200 C 138.955 379.200,139.200 379.380,139.200 379.600 C 139.200 379.820,139.472 380.000,139.805 380.000 C 140.138 380.000,140.723 380.157,141.105 380.350 C 144.211 381.914,145.379 382.400,146.038 382.400 C 146.457 382.400,146.800 382.580,146.800 382.800 C 146.800 383.020,147.149 383.200,147.576 383.200 C 148.003 383.200,148.464 383.380,148.600 383.600 C 148.736 383.820,149.276 384.000,149.800 384.000 C 150.324 384.000,150.864 384.180,151.000 384.400 C 151.136 384.620,151.676 384.800,152.200 384.800 C 152.724 384.800,153.264 384.980,153.400 385.200 C 153.536 385.420,154.166 385.600,154.800 385.600 C 155.434 385.600,156.052 385.760,156.173 385.956 C 156.294 386.151,156.979 386.412,157.696 386.534 C 159.107 386.774,161.548 387.304,164.400 387.989 C 166.619 388.522,170.283 389.122,173.200 389.432 C 174.410 389.560,176.480 389.807,177.800 389.982 C 180.499 390.338,198.531 390.232,201.000 389.846 C 201.880 389.708,203.410 389.491,204.400 389.364 C 205.390 389.237,207.190 388.968,208.400 388.766 C 209.610 388.564,211.459 388.286,212.508 388.148 C 213.558 388.010,214.514 387.740,214.632 387.548 C 214.750 387.357,215.456 387.200,216.200 387.200 C 216.944 387.200,217.664 387.020,217.800 386.800 C 217.936 386.580,218.429 386.400,218.895 386.400 C 219.796 386.400,222.139 385.735,223.295 385.151 C 223.677 384.958,224.442 384.800,224.995 384.800 C 225.548 384.800,226.000 384.620,226.000 384.400 C 226.000 384.180,226.439 384.000,226.976 384.000 C 227.513 384.000,228.064 383.820,228.200 383.600 C 228.336 383.380,228.709 383.200,229.028 383.200 C 229.560 383.200,232.421 382.052,234.095 381.167 C 234.477 380.965,235.062 380.800,235.395 380.800 C 235.728 380.800,236.000 380.620,236.000 380.400 C 236.000 380.180,236.360 380.000,236.800 380.000 C 237.240 380.000,237.600 379.820,237.600 379.600 C 237.600 379.380,237.834 379.200,238.120 379.200 C 238.856 379.200,240.793 378.259,240.797 377.900 C 240.799 377.735,241.160 377.600,241.600 377.600 C 242.040 377.600,242.400 377.420,242.400 377.200 C 242.400 376.980,242.760 376.800,243.200 376.800 C 243.640 376.800,244.000 376.620,244.000 376.400 C 244.000 376.180,244.360 376.000,244.800 376.000 C 245.240 376.000,245.600 375.820,245.600 375.600 C 245.600 375.380,245.960 375.200,246.400 375.200 C 246.840 375.200,247.200 375.009,247.200 374.776 C 247.200 374.543,247.365 374.455,247.566 374.579 C 247.767 374.703,247.992 374.659,248.066 374.481 C 248.140 374.303,249.370 373.460,250.800 372.607 C 253.255 371.144,253.922 370.678,256.669 368.505 C 257.291 368.013,257.943 367.608,258.118 367.605 C 258.293 367.602,258.886 367.150,259.436 366.600 C 259.986 366.050,260.596 365.600,260.792 365.600 C 260.987 365.600,262.071 364.700,263.200 363.600 C 264.329 362.500,265.376 361.598,265.527 361.596 C 265.995 361.589,274.169 353.476,275.196 352.000 C 275.731 351.230,276.671 350.123,277.285 349.540 C 277.898 348.956,278.400 348.231,278.400 347.928 C 278.400 347.625,278.760 347.117,279.200 346.800 C 279.640 346.483,280.000 345.993,280.000 345.712 C 280.000 345.430,280.180 345.200,280.400 345.200 C 280.620 345.200,280.800 345.007,280.800 344.772 C 280.800 344.537,281.303 343.592,281.919 342.672 C 282.534 341.752,283.479 340.100,284.019 339.000 C 284.558 337.900,285.135 336.940,285.300 336.867 C 285.465 336.793,285.600 336.388,285.600 335.967 C 285.600 335.545,285.780 335.200,286.000 335.200 C 286.220 335.200,286.400 334.928,286.400 334.596 C 286.400 334.263,286.739 333.228,287.153 332.296 C 287.567 331.363,288.144 329.970,288.436 329.200 C 289.040 327.605,289.383 327.215,290.836 326.467 C 291.406 326.173,292.486 325.409,293.236 324.768 C 293.986 324.126,294.729 323.601,294.887 323.601 C 295.495 323.599,303.200 316.119,303.200 315.530 C 303.200 315.380,303.425 315.014,303.700 314.718 C 304.528 313.825,305.832 311.885,306.590 310.420 C 306.983 309.660,307.552 308.791,307.856 308.487 C 308.159 308.184,308.305 307.770,308.180 307.568 C 308.055 307.365,308.143 307.200,308.376 307.200 C 308.609 307.200,308.800 306.840,308.800 306.400 C 308.800 305.960,308.980 305.600,309.200 305.600 C 309.420 305.600,309.600 305.150,309.600 304.600 C 309.600 304.050,309.736 303.600,309.903 303.600 C 310.234 303.600,311.200 300.776,311.200 299.806 C 311.200 299.473,311.380 299.200,311.600 299.200 C 311.820 299.200,312.000 298.491,312.000 297.624 C 312.000 296.757,312.180 295.936,312.400 295.800 C 312.620 295.664,312.800 294.584,312.800 293.400 C 312.800 292.216,312.980 291.136,313.200 291.000 C 313.420 290.864,313.603 289.638,313.606 288.276 L 313.612 285.800 315.606 284.821 C 316.703 284.283,317.600 283.698,317.600 283.521 C 317.600 283.345,317.793 283.200,318.029 283.200 C 318.264 283.200,318.686 282.975,318.965 282.700 C 319.245 282.425,320.071 281.750,320.802 281.200 C 322.577 279.863,327.200 275.308,327.200 274.895 C 327.200 274.714,327.830 273.899,328.600 273.082 C 329.370 272.266,330.000 271.419,330.000 271.199 C 330.000 270.980,330.180 270.800,330.400 270.800 C 330.620 270.800,330.800 270.530,330.800 270.200 C 330.800 269.870,330.980 269.600,331.200 269.600 C 331.420 269.600,331.600 269.330,331.600 269.000 C 331.600 268.670,331.780 268.400,332.000 268.400 C 332.220 268.400,332.400 268.055,332.400 267.633 C 332.400 267.212,332.535 266.807,332.700 266.733 C 332.990 266.604,334.487 263.645,335.297 261.600 C 335.515 261.050,335.852 260.287,336.047 259.905 C 336.241 259.523,336.400 258.859,336.400 258.429 C 336.400 257.999,336.560 257.548,336.756 257.427 C 336.951 257.306,337.214 256.621,337.339 255.904 C 337.464 255.187,337.757 253.610,337.989 252.400 C 338.222 251.190,338.520 248.850,338.653 247.200 C 338.884 244.318,339.279 243.200,340.066 243.200 C 340.268 243.200,340.820 242.840,341.292 242.400 C 341.764 241.960,342.387 241.600,342.675 241.600 C 342.964 241.600,343.200 241.448,343.200 241.261 C 343.200 241.075,343.543 240.760,343.961 240.561 C 345.957 239.614,353.778 232.128,354.218 230.744 C 354.348 230.335,354.594 230.000,354.766 230.000 C 354.938 230.000,355.403 229.280,355.800 228.400 C 356.197 227.520,356.674 226.800,356.861 226.800 C 357.047 226.800,357.200 226.440,357.200 226.000 C 357.200 225.560,357.335 225.199,357.500 225.197 C 357.859 225.193,358.800 223.256,358.800 222.520 C 358.800 222.234,358.980 222.000,359.200 222.000 C 359.420 222.000,359.600 221.640,359.600 221.200 C 359.600 220.760,359.780 220.400,360.000 220.400 C 360.220 220.400,360.400 220.038,360.400 219.595 C 360.400 219.152,360.559 218.477,360.753 218.095 C 361.885 215.870,362.353 214.167,362.677 211.100 C 362.787 210.055,363.040 209.301,363.239 209.424 C 363.449 209.554,363.600 206.381,363.600 201.824 C 363.600 196.875,363.453 194.000,363.200 194.000 C 362.980 194.000,362.797 193.235,362.794 192.300 C 362.791 191.365,362.631 190.352,362.438 190.049 C 362.191 189.658,362.515 189.132,363.545 188.249 C 367.924 184.493,372.413 178.946,374.600 174.589 C 375.480 172.835,376.335 171.340,376.500 171.267 C 376.665 171.193,376.800 170.709,376.800 170.190 C 376.800 169.672,376.980 169.136,377.200 169.000 C 377.420 168.864,377.600 168.313,377.600 167.776 C 377.600 167.239,377.780 166.800,378.000 166.800 C 378.220 166.800,378.400 166.271,378.400 165.624 C 378.400 164.977,378.580 164.336,378.800 164.200 C 379.020 164.064,379.200 163.333,379.200 162.576 C 379.200 161.819,379.380 161.200,379.600 161.200 C 379.829 161.200,380.000 160.000,380.000 158.400 C 380.000 156.800,380.171 155.600,380.400 155.600 C 380.641 155.600,380.800 153.941,380.800 151.424 C 380.800 149.071,380.625 147.139,380.400 147.000 C 379.429 146.400,380.252 144.378,382.500 141.840 C 382.885 141.405,383.204 140.858,383.209 140.625 C 383.214 140.391,383.570 139.750,384.000 139.200 C 384.430 138.650,384.786 137.885,384.791 137.500 C 384.796 137.115,384.980 136.800,385.200 136.800 C 385.420 136.800,385.600 136.625,385.600 136.412 C 385.600 136.198,386.032 135.073,386.559 133.912 C 389.015 128.506,390.891 123.073,390.972 121.133 C 390.987 120.767,391.135 120.332,391.300 120.167 C 391.465 120.002,391.600 119.123,391.600 118.213 C 391.600 117.304,391.766 116.389,391.970 116.180 C 392.717 115.412,393.501 98.941,392.822 98.262 C 392.590 98.030,392.400 96.562,392.400 95.000 C 392.400 93.438,392.237 91.989,392.039 91.780 C 391.840 91.571,391.567 90.500,391.431 89.400 C 391.296 88.300,391.128 86.950,391.060 86.400 C 390.991 85.849,390.724 85.006,390.467 84.526 C 389.838 83.349,389.898 81.568,390.600 80.641 C 390.916 80.224,391.080 79.729,390.964 79.541 C 390.848 79.353,390.943 79.200,391.176 79.200 C 391.409 79.200,391.600 78.660,391.600 78.000 C 391.600 77.340,391.780 76.800,392.000 76.800 C 392.220 76.800,392.400 76.451,392.400 76.024 C 392.400 75.597,392.580 75.136,392.800 75.000 C 393.020 74.864,393.200 74.313,393.200 73.776 C 393.200 73.239,393.380 72.800,393.600 72.800 C 393.820 72.800,394.000 72.260,394.000 71.600 C 394.000 70.940,394.180 70.400,394.400 70.400 C 394.620 70.400,394.800 69.961,394.800 69.424 C 394.800 68.887,394.980 68.336,395.200 68.200 C 395.420 68.064,395.600 67.524,395.600 67.000 C 395.600 66.476,395.780 65.936,396.000 65.800 C 396.220 65.664,396.400 65.034,396.400 64.400 C 396.400 63.766,396.580 63.136,396.800 63.000 C 397.020 62.864,397.200 62.133,397.200 61.376 C 397.200 60.619,397.380 60.000,397.600 60.000 C 397.820 60.000,398.000 59.190,398.000 58.200 C 398.000 57.210,398.180 56.400,398.400 56.400 C 398.620 56.400,398.800 55.515,398.800 54.433 C 398.800 53.216,398.990 52.403,399.300 52.300 C 399.689 52.170,399.800 48.409,399.800 35.287 C 399.800 22.343,399.684 18.324,399.300 17.940 C 399.025 17.665,398.800 16.904,398.800 16.248 C 398.800 15.593,398.632 14.504,398.427 13.828 C 398.222 13.153,397.844 11.790,397.588 10.800 C 397.332 9.810,396.960 8.687,396.761 8.305 C 396.562 7.923,396.397 7.113,396.394 6.505 C 396.391 5.897,396.249 5.181,396.079 4.914 C 395.874 4.592,378.598 21.601,344.786 55.414  M -25 0 L -5 0 L -5 20 L -25 20 Z M 405 0 L 425 0 L 425 20 L 405 20 Z" stroke="none" fill="#5cc46b" fill-rule="evenodd" transform="translate(490,0)"></path><path id="path2" d="M350.200 0.424 C 345.135 1.039,343.805 1.277,343.420 1.641 C 343.211 1.838,342.266 2.000,341.320 2.000 C 340.374 2.000,339.600 2.180,339.600 2.400 C 339.600 2.620,338.981 2.800,338.224 2.800 C 337.467 2.800,336.736 2.980,336.600 3.200 C 336.464 3.420,335.823 3.600,335.176 3.600 C 334.529 3.600,334.000 3.780,334.000 4.000 C 334.000 4.220,333.595 4.405,333.100 4.410 C 332.130 4.421,326.984 6.083,326.538 6.529 C 326.389 6.678,325.937 6.800,325.533 6.800 C 325.130 6.800,324.800 6.980,324.800 7.200 C 324.800 7.420,324.350 7.600,323.800 7.600 C 323.250 7.600,322.800 7.780,322.800 8.000 C 322.800 8.220,322.380 8.400,321.867 8.400 C 321.353 8.400,320.798 8.535,320.633 8.700 C 320.468 8.865,320.213 9.013,320.067 9.029 C 319.920 9.044,319.307 9.297,318.704 9.591 C 317.770 10.046,317.369 10.031,315.988 9.488 C 315.097 9.138,314.019 8.919,313.593 9.001 C 313.166 9.084,312.712 8.982,312.585 8.775 C 312.457 8.569,311.553 8.400,310.576 8.400 C 309.599 8.400,308.800 8.220,308.800 8.000 C 308.800 7.772,307.608 7.600,306.024 7.600 C 304.497 7.600,303.136 7.420,303.000 7.200 C 302.668 6.663,289.332 6.663,289.000 7.200 C 288.864 7.420,287.503 7.600,285.976 7.600 C 284.392 7.600,283.200 7.772,283.200 8.000 C 283.200 8.220,282.401 8.400,281.424 8.400 C 280.447 8.400,279.543 8.569,279.415 8.775 C 279.288 8.982,278.837 9.084,278.414 9.003 C 277.992 8.921,276.445 9.290,274.977 9.823 C 273.509 10.355,272.149 10.692,271.954 10.572 C 271.759 10.451,271.600 10.543,271.600 10.776 C 271.600 11.009,271.265 11.200,270.856 11.200 C 270.225 11.200,267.205 12.523,264.200 14.116 C 263.760 14.349,262.680 14.913,261.800 15.370 C 260.920 15.826,260.110 16.290,260.000 16.400 C 259.890 16.510,259.440 16.797,259.000 17.038 C 256.989 18.137,256.185 18.649,255.445 19.300 C 254.536 20.099,254.152 20.169,253.800 19.600 C 253.468 19.063,243.200 19.063,243.200 19.600 C 243.200 19.822,242.141 20.000,240.824 20.000 C 239.517 20.000,238.336 20.180,238.200 20.400 C 238.064 20.620,237.344 20.800,236.600 20.800 C 235.856 20.800,235.136 20.980,235.000 21.200 C 234.864 21.420,234.223 21.600,233.576 21.600 C 232.929 21.600,232.400 21.780,232.400 22.000 C 232.400 22.220,231.961 22.400,231.424 22.400 C 230.887 22.400,230.336 22.580,230.200 22.800 C 230.064 23.020,229.593 23.200,229.153 23.200 C 228.713 23.200,228.464 23.380,228.600 23.600 C 228.740 23.827,228.404 24.000,227.824 24.000 C 227.261 24.000,226.800 24.180,226.800 24.400 C 226.800 24.620,226.530 24.800,226.200 24.800 C 225.870 24.800,225.600 24.991,225.600 25.224 C 225.600 25.457,225.435 25.545,225.232 25.420 C 225.030 25.295,224.580 25.477,224.232 25.825 C 223.885 26.173,223.600 26.320,223.600 26.152 C 223.600 25.984,223.357 26.179,223.061 26.585 C 222.764 26.990,222.347 27.214,222.134 27.083 C 221.920 26.951,221.493 27.193,221.185 27.621 C 220.876 28.050,220.398 28.400,220.122 28.400 C 219.847 28.400,218.843 29.165,217.892 30.100 C 216.940 31.035,215.337 32.520,214.329 33.400 C 213.321 34.280,212.025 35.700,211.448 36.556 C 210.872 37.412,210.400 37.907,210.400 37.656 C 210.400 37.376,209.636 37.200,208.424 37.200 C 207.337 37.200,206.336 37.020,206.200 36.800 C 205.810 36.169,190.402 36.266,190.394 36.900 C 190.390 37.233,190.258 37.200,190.000 36.800 C 189.742 36.400,189.610 36.367,189.606 36.700 C 189.602 37.016,189.010 37.200,188.000 37.200 C 187.120 37.200,186.400 37.380,186.400 37.600 C 186.400 37.820,185.669 38.000,184.776 38.000 C 183.796 38.000,183.251 38.158,183.400 38.400 C 183.547 38.639,183.063 38.800,182.200 38.800 C 181.337 38.800,180.853 38.961,181.000 39.200 C 181.136 39.420,180.912 39.600,180.503 39.600 C 179.591 39.600,177.607 40.489,177.603 40.900 C 177.601 41.065,177.330 41.200,177.000 41.200 C 176.670 41.200,176.400 41.342,176.400 41.515 C 176.400 41.688,176.011 41.859,175.536 41.895 C 175.061 41.931,174.546 42.164,174.391 42.414 C 174.237 42.664,174.041 42.842,173.955 42.810 C 173.870 42.778,173.350 42.931,172.800 43.151 C 172.250 43.370,171.980 43.563,172.200 43.581 C 172.592 43.611,171.596 44.261,169.600 45.278 C 169.050 45.558,168.123 46.285,167.540 46.894 C 166.956 47.502,166.319 48.000,166.123 48.000 C 165.927 48.000,165.105 48.720,164.296 49.600 C 163.487 50.480,162.921 51.200,163.039 51.200 C 163.157 51.200,162.416 52.055,161.394 53.100 C 160.371 54.145,159.254 55.540,158.911 56.200 C 158.569 56.860,158.177 57.490,158.040 57.600 C 157.904 57.710,157.434 58.495,156.996 59.344 C 156.057 61.166,156.213 61.097,152.400 61.374 C 147.742 61.712,145.434 62.045,145.020 62.439 C 144.811 62.637,144.046 62.800,143.320 62.800 C 142.594 62.800,142.000 62.947,142.000 63.128 C 142.000 63.308,141.100 63.700,140.000 64.000 C 138.900 64.300,138.000 64.692,138.000 64.872 C 138.000 65.053,137.645 65.200,137.212 65.200 C 136.779 65.200,135.783 65.560,135.000 66.000 C 134.217 66.440,133.311 66.800,132.988 66.800 C 132.665 66.800,132.400 66.980,132.400 67.200 C 132.400 67.420,132.130 67.600,131.800 67.600 C 131.470 67.600,131.200 67.780,131.200 68.000 C 131.200 68.220,130.930 68.400,130.600 68.400 C 130.270 68.400,130.000 68.567,130.000 68.771 C 130.000 68.975,129.759 69.200,129.464 69.271 C 128.744 69.444,125.956 71.735,123.380 74.271 C 122.222 75.410,121.168 76.235,121.038 76.104 C 120.907 75.974,120.800 76.197,120.800 76.600 C 120.800 77.003,120.683 77.217,120.541 77.074 C 120.247 76.781,119.051 78.056,118.079 79.700 C 117.720 80.305,117.286 80.800,117.114 80.800 C 116.941 80.800,116.800 81.036,116.800 81.325 C 116.800 81.613,116.475 82.198,116.078 82.625 C 115.680 83.051,115.102 83.972,114.793 84.671 C 114.483 85.370,114.088 85.855,113.915 85.748 C 113.742 85.640,113.600 85.743,113.600 85.976 C 113.600 86.227,112.629 86.400,111.224 86.400 C 109.917 86.400,108.736 86.580,108.600 86.800 C 108.464 87.020,107.384 87.200,106.200 87.200 C 105.016 87.200,103.936 87.380,103.800 87.600 C 103.664 87.820,102.843 88.000,101.976 88.000 C 101.109 88.000,100.400 88.180,100.400 88.400 C 100.400 88.620,99.860 88.800,99.200 88.800 C 98.540 88.800,98.000 88.980,98.000 89.200 C 98.000 89.420,97.657 89.600,97.238 89.600 C 96.422 89.600,93.088 91.201,92.867 91.700 C 92.793 91.865,92.506 92.000,92.228 92.000 C 91.567 92.000,89.281 93.145,88.984 93.625 C 88.857 93.831,88.470 94.000,88.123 94.000 C 87.777 94.000,87.203 94.332,86.847 94.737 C 86.491 95.143,85.770 95.702,85.245 95.981 C 82.977 97.183,76.608 103.786,75.242 106.352 C 74.935 106.928,74.575 107.490,74.441 107.600 C 74.308 107.710,73.944 108.295,73.632 108.900 C 73.320 109.505,72.915 110.000,72.732 110.000 C 72.550 110.000,72.400 110.270,72.400 110.600 C 72.400 111.106,71.698 111.320,70.545 111.166 C 70.404 111.147,70.166 111.331,70.015 111.575 C 69.865 111.819,69.361 112.092,68.897 112.181 C 68.432 112.271,67.704 112.530,67.279 112.758 C 66.853 112.986,66.392 113.058,66.253 112.919 C 66.114 112.780,66.000 112.877,66.000 113.133 C 66.000 113.390,65.640 113.600,65.200 113.600 C 64.760 113.600,64.399 113.735,64.399 113.900 C 64.398 114.065,63.408 114.650,62.200 115.200 C 60.992 115.750,60.002 116.335,60.001 116.500 C 60.001 116.665,59.640 116.800,59.200 116.800 C 58.760 116.800,58.400 116.980,58.400 117.200 C 58.400 117.420,58.164 117.600,57.875 117.600 C 57.587 117.600,56.964 117.960,56.492 118.400 C 56.020 118.840,55.447 119.200,55.220 119.200 C 54.992 119.200,54.340 119.605,53.771 120.100 C 53.202 120.595,52.615 120.996,52.468 120.992 C 52.321 120.988,51.678 121.483,51.041 122.092 C 50.403 122.701,49.716 123.200,49.514 123.200 C 49.312 123.200,46.539 125.855,43.351 129.100 C 36.560 136.013,36.400 136.184,36.400 136.537 C 36.400 136.686,35.860 137.372,35.200 138.063 C 34.540 138.754,34.000 139.490,34.000 139.699 C 34.000 139.908,33.460 140.583,32.800 141.200 C 32.140 141.817,31.600 142.519,31.600 142.760 C 31.600 143.002,31.459 143.200,31.286 143.200 C 31.114 143.200,30.657 143.733,30.272 144.385 C 29.887 145.037,29.315 145.828,29.000 146.143 C 28.686 146.457,28.377 146.952,28.314 147.242 C 28.251 147.532,27.885 148.125,27.500 148.560 C 27.115 148.995,26.800 149.587,26.800 149.875 C 26.800 150.164,26.634 150.400,26.432 150.400 C 26.229 150.400,25.945 150.940,25.800 151.600 C 25.655 152.260,25.371 152.800,25.168 152.800 C 24.966 152.800,24.800 153.160,24.800 153.600 C 24.800 154.040,24.641 154.400,24.447 154.400 C 24.252 154.400,23.993 154.715,23.871 155.100 C 23.748 155.485,22.827 157.310,21.824 159.156 C 20.821 161.001,20.000 162.756,20.000 163.056 C 20.000 163.355,19.820 163.600,19.600 163.600 C 19.380 163.600,19.200 163.949,19.200 164.376 C 19.200 164.803,19.020 165.264,18.800 165.400 C 18.580 165.536,18.400 166.087,18.400 166.624 C 18.400 167.161,18.220 167.600,18.000 167.600 C 17.780 167.600,17.600 167.949,17.600 168.376 C 17.600 168.803,17.420 169.264,17.200 169.400 C 16.980 169.536,16.800 170.087,16.800 170.624 C 16.800 171.161,16.659 171.600,16.487 171.600 C 16.315 171.600,15.943 172.455,15.661 173.500 C 15.378 174.545,14.979 175.713,14.773 176.095 C 14.568 176.477,14.400 177.242,14.400 177.795 C 14.400 178.348,14.239 178.800,14.042 178.800 C 13.845 178.800,13.582 179.475,13.457 180.300 C 12.916 183.880,12.691 184.800,12.356 184.800 C 12.160 184.800,12.000 185.610,12.000 186.600 C 12.000 187.590,11.849 188.400,11.663 188.400 C 11.478 188.400,11.294 189.319,11.255 190.443 C 11.215 191.566,11.006 192.815,10.791 193.217 C 10.576 193.619,10.400 195.029,10.400 196.350 C 10.400 197.672,10.238 198.853,10.040 198.975 C 9.575 199.263,9.586 223.944,10.051 224.231 C 10.243 224.350,10.400 225.528,10.400 226.850 C 10.400 228.171,10.576 229.581,10.791 229.983 C 11.006 230.385,11.215 231.634,11.255 232.757 C 11.294 233.881,11.478 234.800,11.663 234.800 C 11.849 234.800,12.000 235.610,12.000 236.600 C 12.000 237.590,12.180 238.400,12.400 238.400 C 12.620 238.400,12.800 239.019,12.800 239.776 C 12.800 240.533,12.980 241.264,13.200 241.400 C 13.420 241.536,13.600 242.029,13.600 242.495 C 13.600 243.396,14.265 245.739,14.849 246.895 C 15.042 247.277,15.200 248.042,15.200 248.595 C 15.200 249.148,15.380 249.600,15.600 249.600 C 15.820 249.600,16.000 250.050,16.000 250.600 C 16.000 251.150,16.180 251.600,16.400 251.600 C 16.620 251.600,16.800 252.050,16.800 252.600 C 16.800 253.150,16.980 253.600,17.200 253.600 C 17.420 253.600,17.600 254.140,17.600 254.800 C 17.600 255.460,17.780 256.000,18.000 256.000 C 18.220 256.000,18.400 256.270,18.400 256.600 C 18.400 256.930,18.625 257.203,18.900 257.206 C 19.233 257.210,19.200 257.342,18.800 257.600 C 18.400 257.858,18.367 257.990,18.700 257.994 C 18.975 257.997,19.200 258.360,19.200 258.800 C 19.200 259.240,19.380 259.600,19.600 259.600 C 19.820 259.600,20.000 259.960,20.000 260.400 C 20.000 260.840,20.180 261.200,20.400 261.200 C 20.620 261.200,20.800 261.560,20.800 262.000 C 20.800 262.440,20.980 262.800,21.200 262.800 C 21.420 262.800,21.600 263.160,21.600 263.600 C 21.600 264.040,21.780 264.400,22.000 264.400 C 22.220 264.400,22.400 264.760,22.400 265.200 C 22.400 265.640,22.580 266.000,22.800 266.000 C 23.020 266.000,23.200 266.345,23.200 266.767 C 23.200 267.188,23.335 267.593,23.500 267.667 C 23.665 267.740,24.233 268.655,24.763 269.700 C 25.292 270.745,25.872 271.600,26.050 271.600 C 26.229 271.600,26.271 271.870,26.145 272.200 C 26.018 272.530,26.114 272.800,26.357 272.800 C 26.601 272.800,26.800 273.045,26.800 273.345 C 26.800 273.645,27.277 274.368,27.861 274.952 C 28.444 275.535,28.805 276.128,28.663 276.270 C 28.521 276.412,28.764 276.780,29.203 277.087 C 29.641 277.394,30.000 278.006,30.000 278.446 C 30.000 278.887,30.180 279.136,30.400 279.000 C 30.620 278.864,30.800 278.994,30.800 279.288 C 30.800 279.583,31.160 280.083,31.600 280.400 C 32.040 280.717,32.400 281.207,32.400 281.488 C 32.400 281.769,33.120 282.741,34.000 283.648 C 34.880 284.555,35.600 285.441,35.600 285.617 C 35.600 285.794,36.320 286.644,37.200 287.507 C 38.080 288.369,38.800 289.180,38.800 289.307 C 38.800 289.435,39.858 290.625,41.152 291.951 C 42.446 293.277,43.406 294.461,43.286 294.581 C 43.165 294.702,43.322 294.802,43.633 294.804 C 43.945 294.806,44.650 295.383,45.200 296.086 C 46.251 297.431,49.249 300.441,55.928 306.861 C 58.138 308.984,59.838 310.829,59.706 310.961 C 59.574 311.092,59.650 311.200,59.874 311.200 C 60.272 311.200,61.242 312.102,63.934 314.976 C 65.988 317.169,63.159 319.586,90.271 292.474 L 110.797 271.949 110.899 215.674 L 111.000 159.400 122.574 159.294 C 130.367 159.222,134.287 159.327,134.574 159.614 C 134.868 159.908,135.062 173.593,135.200 203.720 L 135.400 247.400 152.300 230.444 L 169.200 213.487 169.200 174.158 C 169.200 135.683,169.217 134.819,169.974 134.414 C 171.358 133.673,192.611 133.868,193.371 134.629 C 193.930 135.187,194.000 138.221,194.000 161.998 L 194.000 188.738 211.000 171.756 L 228.000 154.773 228.000 131.987 L 228.000 109.200 240.200 109.200 L 252.400 109.200 252.400 119.400 C 252.400 125.902,252.544 129.600,252.798 129.600 C 253.017 129.600,260.197 122.580,268.754 114.000 C 277.311 105.420,284.554 98.400,284.849 98.400 C 285.144 98.400,287.146 100.154,289.297 102.297 L 293.209 106.194 344.101 55.297 C 372.092 27.304,395.130 4.400,395.297 4.400 C 395.464 4.400,395.600 4.220,395.600 4.000 C 395.600 3.780,394.880 3.600,394.000 3.600 C 393.120 3.600,392.400 3.420,392.400 3.200 C 392.400 2.980,391.781 2.800,391.024 2.800 C 390.267 2.800,389.536 2.620,389.400 2.400 C 389.264 2.180,388.544 2.000,387.800 2.000 C 387.056 2.000,386.336 1.820,386.200 1.600 C 386.064 1.380,385.279 1.200,384.456 1.200 C 383.633 1.200,382.739 0.979,382.469 0.709 C 381.878 0.118,354.701 -0.123,350.200 0.424  M -25 0 L -5 0 L -5 20 L -25 20 Z M 405 0 L 425 0 L 425 20 L 405 20 Z" stroke="none" fill="#94dc3c" fill-rule="evenodd" transform="translate(950,0)"></path><path id="path3" d="M390.000 82.576 C 390.000 83.333,390.138 84.038,390.307 84.143 C 390.476 84.247,390.548 83.628,390.465 82.766 C 390.281 80.832,390.000 80.718,390.000 82.576 M150.705 248.700 C 72.639 326.745,8.575 390.960,8.339 391.400 C 7.717 392.564,4.139 396.129,154.645 245.646 L 293.221 107.092 297.296 111.159 L 301.371 115.226 285.270 131.330 C 276.414 140.188,269.296 147.562,269.451 147.718 C 269.606 147.873,274.383 148.000,280.067 148.000 L 290.400 148.000 290.400 159.600 L 290.400 171.200 267.905 171.200 L 245.410 171.200 227.805 188.900 L 210.200 206.600 237.600 206.807 C 252.670 206.921,265.045 207.056,265.100 207.107 C 265.499 207.478,265.132 229.508,264.720 229.920 C 264.353 230.287,255.035 230.400,225.218 230.400 L 186.197 230.400 168.898 247.702 C 159.384 257.218,151.600 265.137,151.600 265.300 C 151.600 265.463,171.445 265.642,195.700 265.698 L 239.800 265.800 239.906 277.300 L 240.012 288.800 183.901 288.800 L 127.790 288.800 105.495 311.108 C 93.233 323.378,83.206 333.593,83.213 333.808 C 83.230 334.338,84.211 335.600,84.606 335.600 C 84.781 335.600,84.607 335.250,84.219 334.821 C 83.331 333.840,81.965 335.308,107.924 309.337 L 128.048 289.203 184.324 289.101 L 240.600 289.000 240.697 277.600 C 240.755 270.847,240.639 265.955,240.412 265.600 C 240.077 265.075,234.588 264.975,196.315 264.800 L 152.600 264.600 169.547 247.700 L 186.494 230.800 225.857 230.800 L 265.220 230.800 265.610 229.774 C 266.029 228.671,266.151 208.805,265.748 207.300 L 265.507 206.400 238.986 206.400 C 224.400 206.400,212.205 206.300,211.886 206.178 C 211.495 206.028,216.813 200.443,228.263 188.981 L 245.220 172.007 267.910 171.903 L 290.600 171.800 290.706 159.707 L 290.812 147.613 280.311 147.507 L 269.811 147.400 285.706 131.542 C 294.448 122.819,301.600 115.446,301.600 115.156 C 301.600 114.511,293.769 106.800,293.113 106.800 C 292.855 106.800,228.772 170.655,150.705 248.700 M356.065 227.817 C 355.395 229.288,355.523 229.602,356.247 228.265 C 356.586 227.640,356.788 227.054,356.696 226.963 C 356.605 226.871,356.321 227.256,356.065 227.817 M63.456 318.209 C 62.607 318.974,62.076 319.600,62.277 319.600 C 62.479 319.600,63.254 318.970,64.000 318.200 C 65.736 316.409,65.449 316.414,63.456 318.209 M52.034 329.753 L 51.069 331.000 52.213 329.912 C 52.843 329.314,53.277 328.753,53.179 328.665 C 53.080 328.577,52.565 329.067,52.034 329.753 M46.653 335.004 C 45.582 335.992,44.869 336.800,45.069 336.800 C 45.270 336.800,46.228 335.990,47.200 335.000 C 49.470 332.687,49.163 332.689,46.653 335.004 M35.800 345.779 C 33.635 348.137,33.234 348.800,34.994 347.114 C 36.076 346.077,36.880 345.156,36.781 345.068 C 36.681 344.979,36.240 345.299,35.800 345.779 M29.478 352.213 C 28.860 352.756,28.514 353.200,28.708 353.200 C 28.902 353.200,29.483 352.750,30.000 352.200 C 31.195 350.928,30.931 350.934,29.478 352.213 M18.833 362.740 C 16.998 364.876,16.806 365.229,18.192 363.913 C 19.055 363.096,19.679 362.349,19.580 362.254 C 19.481 362.159,19.145 362.378,18.833 362.740 M13.456 368.209 C 12.607 368.974,12.076 369.600,12.277 369.600 C 12.479 369.600,13.254 368.970,14.000 368.200 C 15.736 366.409,15.449 366.414,13.456 368.209 M126.000 372.726 C 126.000 373.132,128.402 374.532,128.658 374.275 C 128.769 374.164,128.487 373.954,128.030 373.810 C 127.574 373.665,127.200 373.397,127.200 373.216 C 127.200 373.034,126.930 372.782,126.600 372.655 C 126.270 372.529,126.000 372.561,126.000 372.726 M2.034 379.753 L 1.069 381.000 2.213 379.912 C 2.843 379.314,3.277 378.753,3.179 378.665 C 3.080 378.577,2.565 379.067,2.034 379.753 M1.659 386.300 C 1.916 386.685,2.862 387.621,3.763 388.379 C 5.259 389.640,5.229 389.580,3.415 387.679 C 1.322 385.486,0.894 385.150,1.659 386.300 M177.700 390.276 C 178.085 390.376,178.715 390.376,179.100 390.276 C 179.485 390.175,179.170 390.093,178.400 390.093 C 177.630 390.093,177.315 390.175,177.700 390.276 M194.900 390.276 C 195.285 390.376,195.915 390.376,196.300 390.276 C 196.685 390.175,196.370 390.093,195.600 390.093 C 194.830 390.093,194.515 390.175,194.900 390.276 M197.700 390.276 C 198.085 390.376,198.715 390.376,199.100 390.276 C 199.485 390.175,199.170 390.093,198.400 390.093 C 197.630 390.093,197.315 390.175,197.700 390.276  M -25 0 L -5 0 L -5 20 L -25 20 Z M 405 0 L 425 0 L 425 20 L 405 20 Z" stroke="none" fill="#2fb56c" fill-rule="evenodd" transform="translate(30,460)"></path><path id="path4" d="M343.904 55.363 L 293.208 106.193 289.297 102.297 C 287.146 100.154,285.144 98.400,284.849 98.400 C 284.554 98.400,277.311 105.420,268.754 114.000 C 260.197 122.580,253.017 129.600,252.798 129.600 C 252.544 129.600,252.400 125.902,252.400 119.400 L 252.400 109.200 240.200 109.200 L 228.000 109.200 228.000 131.987 L 228.000 154.773 211.000 171.756 L 194.000 188.738 194.000 161.998 C 194.000 138.221,193.930 135.187,193.371 134.629 C 192.611 133.868,171.358 133.673,169.974 134.414 C 169.217 134.819,169.200 135.683,169.200 174.158 L 169.200 213.487 152.300 230.444 L 135.400 247.400 135.200 203.720 C 135.062 173.593,134.868 159.908,134.574 159.614 C 134.287 159.327,130.367 159.222,122.574 159.294 L 111.000 159.400 110.899 215.682 L 110.797 271.964 89.120 293.636 C 77.198 305.555,66.893 315.657,66.222 316.085 C 65.123 316.784,65.101 316.835,66.000 316.593 C 66.581 316.436,76.253 307.086,89.100 294.263 L 111.200 272.203 111.200 216.095 L 111.200 159.988 122.700 160.094 L 134.200 160.200 134.299 203.800 C 134.353 227.780,134.496 247.661,134.617 247.980 C 134.765 248.371,140.518 242.880,152.216 231.184 L 169.596 213.807 169.698 174.404 L 169.800 135.000 181.400 135.000 L 193.000 135.000 193.200 162.400 L 193.400 189.800 210.900 172.406 L 228.400 155.012 228.400 132.306 L 228.400 109.600 240.200 109.600 L 252.000 109.600 252.000 119.933 C 252.000 125.617,252.127 130.394,252.282 130.549 C 252.438 130.704,259.816 123.582,268.680 114.720 L 284.794 98.609 288.704 102.505 C 290.855 104.647,292.881 106.400,293.208 106.400 C 293.534 106.400,316.751 83.450,344.800 55.400 C 372.849 27.350,395.529 4.430,395.199 4.466 C 394.870 4.502,371.787 27.406,343.904 55.363  M -25 0 L -5 0 L -5 20 L -25 20 Z M 405 0 L 425 0 L 425 20 L 405 20 Z" stroke="none" fill="#84d44c" fill-rule="evenodd" transform="translate(490,460)"></path></g></svg>