<svg width="891" height="711.05" xmlns="http://www.w3.org/2000/svg" xmlns:xlink="http://www.w3.org/1999/xlink" data-name="Layer 1">
 <defs>
  <linearGradient y2="0" x2="0.5" y1="1" x1="0.5" id="9b3bd20d-94b1-4b89-8689-3658f931a37a">
   <stop stop-opacity="0.25" stop-color="gray" offset="0"/>
   <stop stop-opacity="0.12" stop-color="gray" offset="0.54"/>
   <stop stop-opacity="0.1" stop-color="gray" offset="1"/>
  </linearGradient>
  <linearGradient xlink:href="#9b3bd20d-94b1-4b89-8689-3658f931a37a" y2="362" x2="227.62" y1="373" x1="227.62" id="3648b6f2-24b3-4612-9b51-2b94a6a7f037"/>
  <linearGradient xlink:href="#9b3bd20d-94b1-4b89-8689-3658f931a37a" y2="418" x2="227.62" y1="429" x1="227.62" id="b464c917-b78b-4380-985f-dbae11a5e44a"/>
  <linearGradient xlink:href="#9b3bd20d-94b1-4b89-8689-3658f931a37a" y2="418" x2="329.62" y1="429" x1="329.62" id="72466b91-2539-4c80-b1ac-c07906bc8925"/>
  <linearGradient xlink:href="#9b3bd20d-94b1-4b89-8689-3658f931a37a" y2="72" x2="336.62" y1="83" x1="336.62" id="78890ed7-d917-4391-91b4-37ee3fc8ca06"/>
  <linearGradient xlink:href="#9b3bd20d-94b1-4b89-8689-3658f931a37a" y2="87" x2="336.62" y1="98" x1="336.62" id="d0ac5340-3428-4a2e-9340-0c5bb4adc0ec"/>
  <linearGradient xlink:href="#9b3bd20d-94b1-4b89-8689-3658f931a37a" y2="102" x2="336.62" y1="113" x1="336.62" id="7bf349c6-21a0-4377-b038-17309d0b4fe9"/>
  <linearGradient xlink:href="#9b3bd20d-94b1-4b89-8689-3658f931a37a" y2="117" x2="336.62" y1="128" x1="336.62" id="310c22dd-2978-41dd-b208-5581767f53d7"/>
  <linearGradient xlink:href="#9b3bd20d-94b1-4b89-8689-3658f931a37a" y2="182" x2="214.12" y1="332" x1="214.12" id="9f8eec2a-ad59-4d16-9789-23c241b0441e"/>
  <linearGradient xlink:href="#9b3bd20d-94b1-4b89-8689-3658f931a37a" gradientTransform="translate(-5.78 0.18)" y2="283.3" x2="383.9" y1="435.3" x1="383.9" id="f597f65b-8391-4099-8606-ddd6c1074545"/>
  <linearGradient xlink:href="#9b3bd20d-94b1-4b89-8689-3658f931a37a" gradientTransform="translate(-10.11 -4.98)" y2="307.3" x2="442.9" y1="321.3" x1="442.9" id="536b70eb-a08e-4f57-b7a7-caae76ee659a"/>
  <linearGradient xlink:href="#9b3bd20d-94b1-4b89-8689-3658f931a37a" gradientTransform="translate(-10.64 -8.78)" y2="303.3" x2="484.9" y1="317.3" x1="484.9" id="6a8945d3-e2ea-4790-bfb4-dc06924cb8b4"/>
  <linearGradient xlink:href="#9b3bd20d-94b1-4b89-8689-3658f931a37a" y2="413.16" x2="547.96" y1="413.42" x1="547.96" id="1fa4c350-6ac8-4471-a2c1-5350628064fb"/>
  <linearGradient xlink:href="#9b3bd20d-94b1-4b89-8689-3658f931a37a" y2="408.48" x2="517.63" y1="581.29" x1="517.63" id="4c1eb33a-694b-43df-a00c-843591e6cad6"/>
  <linearGradient xlink:href="#9b3bd20d-94b1-4b89-8689-3658f931a37a" y2="423.02" x2="191.31" y1="423.33" x1="191.31" id="dca23823-ed36-4339-a791-14813e0bdcff"/>
  <linearGradient xlink:href="#9b3bd20d-94b1-4b89-8689-3658f931a37a" y2="417.36" x2="228.23" y1="619.83" x1="228.23" id="88a18300-a7c9-44fe-be2f-c3664a6015d6"/>
  <linearGradient xlink:href="#9b3bd20d-94b1-4b89-8689-3658f931a37a" y2="163.05" x2="692" y1="659.05" x1="692" id="9a3d7bb1-47c0-4ca8-a076-fba8f746a389"/>
  <linearGradient xlink:href="#9b3bd20d-94b1-4b89-8689-3658f931a37a" y2="241.68" x2="595.12" y1="395.68" x1="595.12" id="89aca64f-6823-4107-b0e5-363f57c50e19"/>
  <linearGradient xlink:href="#9b3bd20d-94b1-4b89-8689-3658f931a37a" y2="318.68" x2="788.12" y1="472.68" x1="788.12" id="244838b0-6b94-4a4f-974c-f4ebcd2d6e43"/>
  <linearGradient xlink:href="#9b3bd20d-94b1-4b89-8689-3658f931a37a" y2="508.68" x2="696.12" y1="614.68" x1="696.12" id="a95129aa-3a9b-452b-80f4-39c8b969ae6a"/>
  <linearGradient xlink:href="#9b3bd20d-94b1-4b89-8689-3658f931a37a" y2="351.15" x2="749.12" y1="475.15" x1="749.12" id="09992bb0-0588-4d4c-95c8-1ad271d94435"/>
  <linearGradient xlink:href="#9b3bd20d-94b1-4b89-8689-3658f931a37a" y2="344.68" x2="790.62" y1="362.68" x1="790.62" id="e976fbab-c7be-4f98-b33a-a56658b85843"/>
  <linearGradient xlink:href="#9b3bd20d-94b1-4b89-8689-3658f931a37a" y2="677.68" x2="760.62" y1="699.68" x1="760.62" id="294b6eda-21ba-4cef-8333-d7c4aaac1d9e"/>
  <linearGradient xlink:href="#9b3bd20d-94b1-4b89-8689-3658f931a37a" y2="566.68" x2="607.62" y1="687.68" x1="607.62" id="065b80c5-77d7-4835-9968-dbf0ab7011d1"/>
  <linearGradient xlink:href="#9b3bd20d-94b1-4b89-8689-3658f931a37a" y2="648.68" x2="608.62" y1="648.68" x1="608.62" id="2a3369eb-9ffa-44ee-b4f3-0d72059a1e3a"/>
  <linearGradient xlink:href="#9b3bd20d-94b1-4b89-8689-3658f931a37a" y2="590.68" x2="482.12" y1="645.68" x1="482.12" id="327d5fd3-480a-4895-a6c0-ce7eb7e65eff"/>
  <linearGradient xlink:href="#9b3bd20d-94b1-4b89-8689-3658f931a37a" y2="677.68" x2="459.62" y1="699.68" x1="459.62" id="47ebed85-0f1a-4564-9c94-c36bbc13acdd"/>
  <linearGradient xlink:href="#9b3bd20d-94b1-4b89-8689-3658f931a37a" y2="708.79" x2="600.65" y1="708.79" x1="486.35" id="2b699f83-9fbb-4b6d-8a24-a3f0d4476570"/>
 </defs>
 <title>data</title>
 <g>
  <title>Layer 1</title>
  <ellipse id="svg_1" fill="#f2f2f2" ry="17" rx="67" cy="694.05" cx="370"/>
  <ellipse id="svg_2" fill="#f2f2f2" ry="17" rx="67" cy="506.05" cx="375"/>
  <ellipse id="svg_3" fill="#f2f2f2" ry="17" rx="67" cy="514.05" cx="67"/>
  <rect id="svg_4" fill="#f5f5f5" height="14.5" width="383" y="4" x="22.62"/>
  <rect id="svg_5" fill="url(#9b3bd20d-94b1-4b89-8689-3658f931a37a)" height="486" width="396" x="15.62"/>
  <rect id="svg_6" fill="#fff" height="459.5" width="383" y="17.5" x="22.62"/>
  <circle id="svg_7" fill="#ff5252" r="3.5" cy="11.5" cx="30.5"/>
  <circle id="svg_8" fill="#ff0" r="3.5" cy="11.5" cx="40.12"/>
  <circle id="svg_9" fill="#69f0ae" r="3.5" cy="11.5" cx="49.75"/>
  <g id="svg_10" opacity="0.2">
   <rect id="svg_11" fill="#6415ff" height="9" width="149" y="36" x="33.62"/>
  </g>
  <rect id="svg_12" fill="#f5f5f5" height="9" width="149" y="73" x="139.62"/>
  <rect id="svg_13" opacity="0.5" fill="#34d399" height="9" width="149" y="362" x="33.62"/>
  <rect id="svg_14" fill="url(#3648b6f2-24b3-4612-9b51-2b94a6a7f037)" height="11" width="50" y="362" x="202.62"/>
  <rect id="svg_15" fill="url(#b464c917-b78b-4380-985f-dbae11a5e44a)" height="11" width="50" y="418" x="202.62"/>
  <rect id="svg_16" fill="url(#72466b91-2539-4c80-b1ac-c07906bc8925)" height="11" width="50" y="418" x="304.62"/>
  <rect id="svg_17" fill="#34d399" height="9" width="47" y="363" x="204.62"/>
  <rect id="svg_18" fill="#34d399" height="9" width="47" y="419" x="204.62"/>
  <rect id="svg_19" fill="#34d399" height="9" width="47" y="419" x="305.62"/>
  <rect id="svg_20" fill="#f5f5f5" height="9" width="149" y="391" x="33.62"/>
  <rect id="svg_21" opacity="0.5" fill="#34d399" height="9" width="149" y="391" x="204.62"/>
  <rect id="svg_22" fill="#f5f5f5" height="9" width="149" y="447" x="204.62"/>
  <rect id="svg_23" opacity="0.5" fill="#34d399" height="9" width="149" y="419" x="33.62"/>
  <rect id="svg_24" fill="#f5f5f5" height="9" width="149" y="447" x="33.62"/>
  <rect id="svg_25" fill="#f5f5f5" height="9" width="84" y="88" x="139.62"/>
  <rect id="svg_26" fill="#f5f5f5" height="9" width="29" y="88" x="238.62"/>
  <rect id="svg_27" fill="#f5f5f5" height="9" width="84" y="118" x="139.62"/>
  <rect id="svg_28" fill="#f5f5f5" height="9" width="29" y="118" x="238.62"/>
  <rect id="svg_29" fill="#f5f5f5" height="9" width="149" y="103" x="139.62"/>
  <g id="svg_30" opacity="0.2">
   <rect id="svg_31" fill="#6415ff" height="9" width="149" y="36" x="243.62"/>
  </g>
  <rect id="svg_32" fill="url(#78890ed7-d917-4391-91b4-37ee3fc8ca06)" height="11" width="18" y="72" x="327.62"/>
  <rect id="svg_33" fill="url(#d0ac5340-3428-4a2e-9340-0c5bb4adc0ec)" height="11" width="18" y="87" x="327.62"/>
  <rect id="svg_34" fill="url(#7bf349c6-21a0-4377-b038-17309d0b4fe9)" height="11" width="18" y="102" x="327.62"/>
  <rect id="svg_35" fill="#ff5252" height="9" width="16" y="73" x="328.62"/>
  <rect id="svg_36" fill="#ff9800" height="9" width="16" y="88" x="328.62"/>
  <rect id="svg_37" fill="#69f0ae" height="9" width="16" y="103" x="328.62"/>
  <rect id="svg_38" fill="url(#310c22dd-2978-41dd-b208-5581767f53d7)" height="11" width="18" y="117" x="327.62"/>
  <rect id="svg_39" fill="#6415ff" height="9" width="16" y="118" x="328.62"/>
  <rect id="svg_40" fill="url(#9f8eec2a-ad59-4d16-9789-23c241b0441e)" height="150" width="367" y="182" x="30.62"/>
  <rect id="svg_41" opacity="0.5" fill="#34d399" height="142" width="359" y="185" x="33.62"/>
  <polygon id="svg_42" opacity="0.5" fill="#fff" points="44.62 196 392.62 196 392.62 185 33.62 185 33.62 327 44.62 327 44.62 196"/>
  <rect id="svg_43" transform="rotate(-5.2 -185.54 -58.7)" fill="url(#f597f65b-8391-4099-8606-ddd6c1074545)" height="152" width="370" y="224.78" x="7.58001"/>
  <rect id="svg_44" transform="rotate(-5.2 -185.45 -58.67)" fill="#fff" height="142" width="359" y="228.76" x="13.58"/>
  <path id="svg_45" opacity="0.5" fill="#34d399" d="m65.5,325.59l-6.2,-78.77s32,-34 96.6,-8.8s95.06,7.41 105.56,-9.61s65,-36 82.66,-7.53s38.84,-3.54 38.84,-3.54l7.16,78.67l-324.62,29.58z"/>
  <line id="svg_46" stroke-miterlimit="10" stroke="#6415ff" fill="none" y2="235.64" x2="98.57" y1="229.66" x1="98.03"/>
  <line id="svg_47" stroke-dasharray="11.51 11.51" stroke-miterlimit="10" stroke="#6415ff" fill="none" y2="310.16" x2="105.36" y1="247.1" x1="99.62"/>
  <line id="svg_48" stroke-miterlimit="10" stroke="#6415ff" fill="none" y2="321.86" x2="106.43" y1="315.89" x1="105.88"/>
  <line id="svg_49" stroke-miterlimit="10" stroke="#6415ff" fill="none" y2="245.39" x2="160.07" y1="239.42" x1="159.52"/>
  <line id="svg_50" stroke-dasharray="13.06 13.06" stroke-miterlimit="10" stroke="#6415ff" fill="none" y2="303.91" x2="165.4" y1="258.4" x1="161.25"/>
  <line id="svg_51" stroke-miterlimit="10" stroke="#6415ff" fill="none" y2="316.39" x2="166.53" y1="310.41" x1="165.99"/>
  <line id="svg_52" stroke-miterlimit="10" stroke="#6415ff" fill="none" y2="256.07" x2="222.86" y1="250.1" x1="222.26"/>
  <line id="svg_53" stroke-dasharray="9.79 9.79" stroke-miterlimit="10" stroke="#6415ff" fill="none" y2="299.92" x2="227.21" y1="265.82" x1="223.83"/>
  <line id="svg_54" stroke-miterlimit="10" stroke="#6415ff" fill="none" y2="310.77" x2="228.29" y1="304.79" x1="227.7"/>
  <line id="svg_55" stroke-miterlimit="10" stroke="#6415ff" fill="none" y2="220.82" x2="279.19" y1="214.84" x1="278.65"/>
  <line id="svg_56" stroke-dasharray="11.28 11.28" stroke-miterlimit="10" stroke="#6415ff" fill="none" y2="293.84" x2="285.84" y1="232.05" x1="280.21"/>
  <line id="svg_57" stroke-miterlimit="10" stroke="#6415ff" fill="none" y2="305.43" x2="286.9" y1="299.45" x1="286.35"/>
  <line id="svg_58" stroke-miterlimit="10" stroke="#6415ff" fill="none" y2="212.56" x2="319.89" y1="206.59" x1="319.35"/>
  <line id="svg_59" stroke-dasharray="11.93 11.93" stroke-miterlimit="10" stroke="#6415ff" fill="none" y2="289.77" x2="326.92" y1="224.44" x1="320.97"/>
  <line id="svg_60" stroke-miterlimit="10" stroke="#6415ff" fill="none" y2="301.68" x2="328.01" y1="295.71" x1="327.46"/>
  <circle id="svg_61" transform="rotate(-5.2 -182.82 -70.25)" fill="#ff9800" r="5" cy="253.48" cx="69.53999"/>
  <circle id="svg_62" transform="rotate(-5.2 -183.52 -64.66)" fill="#ff5252" r="5" cy="269.57" cx="130.04"/>
  <circle id="svg_63" transform="rotate(-5.2 -184.19 -58.89)" fill="#69f0ae" r="5" cy="285.65" cx="192.57"/>
  <circle id="svg_64" fill="url(#536b70eb-a08e-4f57-b7a7-caae76ee659a)" transform="translate(-180.77 -53.95)" r="7" cy="309.31" cx="432.8"/>
  <circle id="svg_65" fill="url(#6a8945d3-e2ea-4790-bfb4-dc06924cb8b4)" transform="translate(-179.89 -50.22)" r="7" cy="301.52" cx="474.26"/>
  <circle id="svg_66" transform="rotate(-5.2 -180.77 -53.95)" fill="#6415ff" r="5" cy="255.36" cx="252.03"/>
  <circle id="svg_67" transform="rotate(-5.2 -179.89 -50.22)" fill="#6415ff" r="5" cy="251.3" cx="294.37"/>
  <circle id="svg_68" transform="rotate(-5.2 -180.75 -44.42)" fill="#69f0ae" r="5" cy="269.4" cx="356.89"/>
  <g id="svg_69" opacity="0.2">
   <path id="svg_70" fill="url(#1fa4c350-6ac8-4471-a2c1-5350628064fb)" transform="translate(-154.5 -94.48)" d="m547.76,413.2l0.07,0.23c0.77,-0.43 -0.07,-0.23 -0.07,-0.23z"/>
  </g>
  <g id="svg_71" opacity="0.2">
   <path id="svg_72" fill="url(#4c1eb33a-694b-43df-a00c-843591e6cad6)" transform="translate(-154.5 -94.48)" d="m539.48,581.18l16.28,-2.63l-2.24,-10l0,0l0,-0.14l-0.06,0l-11.54,-53l0,-38.65a14.26,14.26 0 0 0 -0.08,-1.47c17.24,-22.86 7,-58.73 6,-61.86c-0.18,0.09 -0.45,0.21 -0.83,0.36a21.06,21.06 0 0 0 -0.79,-4.13s-5,-3.18 -7.73,0.91c-2.38,3.57 -0.61,5.75 -0.12,6.26l-0.34,0.11a11.52,11.52 0 0 1 1.58,3.94a8.65,8.65 0 0 0 -0.54,-1c-0.63,-0.11 -1,-0.21 -1,-0.21l-0.12,-0.11l-0.34,0.11c1.73,2.53 2.34,7 2.26,12.3a17.36,17.36 0 0 0 -2,-2.31a17.65,17.65 0 0 0 -11.7,-4.88l-0.83,0q-0.68,0 -1.36,0.09l-0.34,0l-0.57,0.08l-0.65,0.12l-0.47,0.1l-0.81,0.22l-0.3,0.09c-0.34,0.11 -0.67,0.22 -1,0.35a17.24,17.24 0 0 1 -3.43,1.24c-0.16,0 -0.32,0 -0.49,0.05l0,0a5.72,5.72 0 0 1 -3.75,-1.07l-0.36,-0.28a5.29,5.29 0 0 1 -0.39,-0.37a2.54,2.54 0 0 0 -0.17,1.09a3.35,3.35 0 0 0 1.17,2.27a3.17,3.17 0 0 0 0.62,0.42a2.68,2.68 0 0 0 1.06,0.3l0.38,0l-0.09,0c-0.23,0.11 -0.46,0.21 -0.7,0.3l-0.05,0c-0.26,0.09 -0.51,0.17 -0.78,0.24l0,0a8.68,8.68 0 0 1 -4,0.06l0,0l-0.43,-0.1c-0.21,-0.06 -0.43,-0.12 -0.63,-0.19a4.8,4.8 0 0 0 0.22,0.44l0.08,0.13l0.18,0.28l0.11,0.14l0.2,0.25l0.12,0.13l0.25,0.25l0.1,0.09l0.37,0.31l0.13,0.09l0.27,0.19l0.18,0.11l0.24,0.14l0.2,0.1l0.25,0.11l0.21,0.09l0.28,0.1l0.35,0.1l0.26,0.07l0.25,0l0.23,0l0.26,0l1,0a5,5 0 0 0 1.5,-0.37l-0.92,0.38l0,0l-0.46,0.16l-0.47,0.17l-0.47,0.14l-0.48,0.14l-0.47,0.12l-0.5,0.12l-0.46,0.09l-0.53,0.09l-0.44,0.07l-0.57,0.07l-0.41,0l-0.65,0l-0.34,0l-1,0a4.21,4.21 0 0 1 1.51,0.8a4,4 0 0 0 0.93,0.5a3.59,3.59 0 0 0 0.45,0.1l0.13,0l0.32,0l1.35,0l0.44,0a6.54,6.54 0 0 1 2.59,0.83a4.65,4.65 0 0 1 1.11,1c-0.14,0.23 -0.28,0.45 -0.4,0.69s-0.21,0.4 -0.31,0.61q-0.3,0.62 -0.53,1.27a14.08,14.08 0 0 0 -0.86,4.85c0,0.31 0,0.61 0,0.91c0,0.08 0,0.17 0,0.25q0,0.36 0.08,0.72l0,0.19q0.06,0.44 0.16,0.87l0,0.17q0.08,0.36 0.18,0.71l0.06,0.21a14,14 0 0 0 0.61,1.66l0.07,0.16q0.17,0.37 0.35,0.72l0,0.07q0.22,0.4 0.46,0.79l0,0.06q0.22,0.36 0.47,0.7l0.06,0.08a14.17,14.17 0 0 0 1.17,1.41l0,0a14.14,14.14 0 0 0 3.77,2.83a6.3,6.3 0 0 0 -0.11,0.65l0,0a6.36,6.36 0 0 0 0,0.68l0,5.28q-0.45,0.24 -0.88,0.51c-12.53,-5.69 -31.19,-46 -31.19,-46l-0.45,0c1.82,-1.36 0,-7.28 0,-7.28a8.54,8.54 0 0 0 -3.5,-1.16l-1,0l-0.18,0l-0.13,0l-0.18,0l-0.12,0l-0.2,0.06l-0.1,0l-0.3,0.11l0,0l-0.28,0.13l-0.1,0.05l-0.19,0.11l-0.13,0.61l-0.18,0.12l-0.11,0.09l-0.17,0.14l-0.11,0.1l-0.17,0.16l-0.1,0.11l-0.17,0.2l-0.08,0.1l-0.25,0.34c-2.73,4.09 0,6.37 0,6.37a40.74,40.74 0 0 0 -0.25,4.75c-0.2,29.46 31.33,52.29 32.94,53.43c-0.71,1.84 -6.57,18.14 0.07,38.49a0.65,0.65 0 0 0 0.08,0.14a59.08,59.08 0 0 0 -17.72,55.88l0.13,0.61l0.29,0a4,4 0 0 1 -0.11,0.4a4.59,4.59 0 0 1 -0.29,0.7a5.43,5.43 0 0 1 -0.73,1.07l0,0c-0.31,0.36 -0.67,0.72 -1.05,1.09l-0.4,0.38c-1.59,1.52 -3.2,3 -2,3.6l17.21,0l0,-7.51l0.3,0s-0.12,-0.23 -0.3,-0.68l0,-0.08l-0.06,0c-0.9,-2.32 -3,-9.5 0.36,-20.56c4.09,-13.65 20,-20.47 20,-20.47l0.29,1l-0.06,0l12.48,41c0,0.16 0,0.32 -0.05,0.49a6.67,6.67 0 0 1 -0.27,1.14a7.25,7.25 0 0 1 -0.34,0.84c-0.77,1.59 -2.1,3.46 -2.68,4.86a4.71,4.71 0 0 0 -0.21,0.59a1.82,1.82 0 0 0 -0.07,0.7a0.81,0.81 0 0 0 0.53,0.67l0,0l0.23,0l0.48,-0.08l0.02,0zm-4.82,-116.73q-0.47,-0.26 -1,-0.49l0,-4.96a6.32,6.32 0 0 0 -0.11,-1.13a14.11,14.11 0 0 0 3,-1.93c-0.6,3.06 -1.27,5.99 -1.88,8.51l-0.01,0z"/>
  </g>
  <path id="svg_73" fill="#ca7070" d="m325.88,328.61s-3,-2.52 0,-7.06s8.57,-1 8.57,-1s2,6.55 0,8.06s-8.57,0 -8.57,0z"/>
  <path fill="#6415ff" d="m357.04,497.27l-13.89,0a4.56,4.56 0 0 1 -1.31,3.57c-1.87,2.16 -5.63,4.77 -3.86,5.66l19.06,0l0,-9.23z" data-name="&lt;Path&gt;" id="cbb1ca8a-3a06-4d8d-9881-c3637d2b9b50"/>
  <path id="svg_74" opacity="0.2" fill="#fff" d="m342.85,500.84a4.56,4.56 0 0 0 1.31,-3.57l-1,0a4.56,4.56 0 0 1 -1.31,3.57c-1.87,2.16 -5.63,4.77 -3.86,5.66l1,0c-1.77,-0.89 1.99,-3.49 3.86,-5.66z"/>
  <path fill="#6415ff" d="m406.5,494.41l-13,2.11a6.62,6.62 0 0 1 -0.59,4.58c-1.42,3 -4.61,6.74 -2.69,7.55l18.82,-3l-2.54,-11.24z" data-name="&lt;Path&gt;" id="ec846da8-b8c9-4838-98ee-b96510078eab"/>
  <path id="svg_75" fill="#6415ff" d="m400.16,322.46s14.87,46.91 -10.07,72.88l-7.2,-5.51s14.74,-51.2 6.49,-63.22c14.56,-4.85 10.78,-4.15 10.78,-4.15z"/>
  <path id="svg_76" fill="#ca7070" d="m389.88,326.6s-3,-2.52 0,-7.06s8.57,-1 8.57,-1s2,6.55 0,8.06s-8.57,0 -8.57,0z"/>
  <path id="svg_77" opacity="0.2" fill="#fff" d="m393.91,501.11a6.62,6.62 0 0 0 0.59,-4.59l12,-2l0,-0.16l-13,2.16a6.62,6.62 0 0 1 -0.59,4.58c-1.42,3 -4.61,6.74 -2.69,7.55l0.79,-0.13c-1.43,-1 1.54,-4.59 2.9,-7.41z"/>
  <rect id="svg_78" fill="#ca7070" ry="7.06" rx="7.06" height="20.91" width="14.11" y="366.16" x="370.48"/>
  <path id="svg_79" opacity="0.2" fill="#fff" d="m383.9,392.85s14.56,-50.57 6.63,-63c-0.7,-0.13 -1.15,-0.23 -1.15,-0.23l-0.13,-0.12l-0.37,0.12c8.25,12 -6.49,63.22 -6.49,63.22l7.2,5.51l0.63,-0.68l-6.32,-4.82z"/>
  <circle id="svg_80" fill="#ca7070" r="15.62" cy="357.85" cx="377.79"/>
  <path id="svg_81" opacity="0.2" fill="#fff" d="m372.24,380.02l0,-6.8a7,7 0 0 1 0.16,-1.48a15.62,15.62 0 0 1 6.26,-29.49l-0.88,0a15.62,15.62 0 0 0 -7.15,29.51a7,7 0 0 0 -0.16,1.48l0,6.8a7,7 0 0 0 7.94,7a7.08,7.08 0 0 1 -6.17,-7.02z"/>
  <path id="svg_82" fill="#6415ff" d="m393.66,435.7s-30.13,3.4 -31.24,0c-7.81,-23.94 0,-42.83 0,-42.83a15.62,15.62 0 0 1 15.62,-15.62l0,0a15.62,15.62 0 0 1 15.62,15.62l0,42.83z"/>
  <path id="svg_83" fill="#263238" d="m393.66,435.7l13.61,62.49l-13.61,0l-14.11,-46.36s-17.64,7.56 -22.17,22.68s0,23.68 0,23.68l-14.62,0l-0.15,-0.68a65,65 0 0 1 19.8,-61.81l0,0"/>
  <path id="svg_84" opacity="0.2" fill="#fff" d="m364.18,435.7c-7.81,-23.94 0,-42.83 0,-42.83a15.62,15.62 0 0 1 14.61,-15.59c-0.33,0 -0.67,0 -1,0l0,0a15.62,15.62 0 0 0 -15.62,15.62s-7.81,18.9 0,42.83c0.4,1.22 4.52,1.56 9.64,1.51c-4.16,-0.09 -7.31,-0.49 -7.63,-1.54z"/>
  <path id="svg_85" fill="#6415ff" d="m362.17,392.61s-40.31,-28.22 -36.28,-64l9.07,0s21.66,46.91 35.54,51.41s-8.33,12.59 -8.33,12.59z"/>
  <g id="svg_86" opacity="0.2">
   <path id="svg_87" fill="#fff" d="m379.81,452.93l13.85,45.51l2,0l-14.11,-46.36s-0.65,0.28 -1.74,0.85z"/>
   <path id="svg_88" fill="#fff" d="m364.43,435.95l-2,0a65,65 0 0 0 -19.8,61.81l0.15,0.68l2,0l-0.15,-0.68a65,65 0 0 1 19.8,-61.81z"/>
  </g>
  <path id="svg_89" opacity="0.2" fill="#fff" d="m327.4,329.12l-1.51,0c-4,35.78 36.28,64 36.28,64l1,-0.38c-4.67,-3.45 -39.54,-30.22 -35.77,-63.62z"/>
  <path id="svg_90" fill="#263238" d="m365.33,350.87a25.85,25.85 0 0 1 1.82,6.29c1,4.38 3.26,8.75 7.15,11a15.87,15.87 0 0 0 7,1.91c3.72,0.23 7.75,-0.49 10.38,-3.13a12.86,12.86 0 0 0 3.17,-6.39a21.63,21.63 0 0 0 -5.69,-19.88a19.19,19.19 0 0 0 -20,-4.19a19.1,19.1 0 0 1 -3.79,1.38a6.31,6.31 0 0 1 -5.53,-1.84a3.49,3.49 0 0 0 3.37,4.52a9.73,9.73 0 0 1 -7.46,0.4a6.33,6.33 0 0 0 8,3.19a21.32,21.32 0 0 1 -9,1.84c0.65,0 1.92,1.2 2.71,1.44a17.18,17.18 0 0 0 3,0.21a5.82,5.82 0 0 1 4.87,3.25z"/>
  <g id="svg_91" opacity="0.2">
   <path id="svg_92" fill="#fff" d="m363.25,340.52a9.63,9.63 0 0 1 -3.7,0.95a9.7,9.7 0 0 0 4.71,-0.95a3.53,3.53 0 0 1 -3.54,-3.81a5.94,5.94 0 0 1 -0.84,-0.71a3.49,3.49 0 0 0 3.37,4.52z"/>
   <path id="svg_93" fill="#fff" d="m366.41,337.87a19.1,19.1 0 0 0 3.79,-1.38a17.38,17.38 0 0 1 6,-1.21a17.56,17.56 0 0 0 -7,1.21a19.1,19.1 0 0 1 -3.79,1.38c-0.18,0 -0.36,0 -0.54,0.06a6,6 0 0 0 1.54,-0.06z"/>
   <path id="svg_94" fill="#fff" d="m358.42,347.42c-0.79,-0.23 -2.06,-1.42 -2.71,-1.44a21.32,21.32 0 0 0 9,-1.84a5.58,5.58 0 0 1 -2,0.42a21.33,21.33 0 0 1 -8,1.42c0.65,0 1.92,1.2 2.71,1.44a6.71,6.71 0 0 0 2.1,0.17a4.38,4.38 0 0 1 -1.1,-0.17z"/>
   <path id="svg_95" fill="#fff" d="m382.33,370.08a15.87,15.87 0 0 1 -7,-1.91c-3.89,-2.27 -6.11,-6.64 -7.15,-11a25.85,25.85 0 0 0 -1.82,-6.29a5.82,5.82 0 0 0 -4.93,-3.23a10.07,10.07 0 0 0 -1.5,0l0.49,0a5.82,5.82 0 0 1 4.93,3.23a25.85,25.85 0 0 1 1.82,6.29c1,4.38 3.26,8.75 7.15,11a15.87,15.87 0 0 0 7,1.91c0.58,0 1.16,0 1.75,0l-0.74,0z"/>
   <path id="svg_96" fill="#fff" d="m362.08,344.52a6.38,6.38 0 0 1 -5.12,-3.27a9.32,9.32 0 0 1 -1.17,-0.33a6.38,6.38 0 0 0 6.29,3.6z"/>
  </g>
  <path id="svg_97" opacity="0.2" fill="#fff" d="m326.89,328.61s-3,-2.52 0,-7.06a4.83,4.83 0 0 1 3.74,-2.29a4.9,4.9 0 0 0 -4.74,2.29c-3,4.54 0,7.06 0,7.06a27.32,27.32 0 0 0 5.93,0.66a29.83,29.83 0 0 1 -4.93,-0.66z"/>
  <g id="svg_98" opacity="0.2">
   <path id="svg_99" fill="url(#dca23823-ed36-4339-a791-14813e0bdcff)" d="m36.97,328.85l0.08,-0.27s-1.02,-0.2 -0.08,0.27z"/>
  </g>
  <g id="svg_100" opacity="0.2">
   <path id="svg_101" fill="url(#88a18300-a7c9-44fe-be2f-c3664a6015d6)" transform="translate(-154.5 -94.48)" d="m285.7,440.09a6.59,6.59 0 0 0 -0.36,-0.93c0,-0.1 -0.1,-0.18 -0.15,-0.27a5.61,5.61 0 0 0 -0.3,-0.52l-0.2,-0.26a5.06,5.06 0 0 0 -0.33,-0.39l-0.23,-0.23c-0.12,-0.11 -0.24,-0.21 -0.36,-0.3l-0.25,-0.18l-0.4,-0.24l-0.25,-0.13l-0.45,-0.19l-0.23,-0.09q-0.32,-0.11 -0.65,-0.18l0,0a10.33,10.33 0 0 0 -4.39,0.12s-4.19,6.18 -2.58,8.4l-0.53,-0.16s-31.13,34.74 -48.69,41.19q-0.67,-0.46 -1.39,-0.86l0,-6.5a7.67,7.67 0 0 0 0,-0.82l0,0a7.6,7.6 0 0 0 -0.13,-0.77l0.13,-0.07l0.52,-0.29l0.75,-0.46l0.48,-0.31q0.54,-0.37 1,-0.78l0.39,-0.34c0.24,-0.2 0.47,-0.41 0.69,-0.63l0.4,-0.39q0.42,-0.43 0.8,-0.88l0.28,-0.34q0.36,-0.45 0.69,-0.92l0.28,-0.42q0.3,-0.46 0.57,-0.94l0.18,-0.31c0.22,-0.41 0.43,-0.84 0.61,-1.28l0.16,-0.39q0.21,-0.53 0.39,-1.07c0,-0.13 0.09,-0.25 0.12,-0.38c0.14,-0.47 0.27,-0.94 0.37,-1.43c0,-0.1 0,-0.19 0.05,-0.29q0.12,-0.61 0.19,-1.24c0,-0.14 0,-0.28 0,-0.42c0,-0.51 0.08,-1 0.08,-1.55a17,17 0 0 0 -3.78,-10.69c1.33,-2.08 2.2,-3.31 2.2,-3.31c-0.8,-0.55 -1.59,-1.05 -2.37,-1.54l-0.76,-0.45c-0.52,-0.31 -1,-0.62 -1.56,-0.9l-0.87,-0.46c-0.47,-0.25 -0.93,-0.49 -1.39,-0.71l-0.89,-0.41l-1.33,-0.58l-0.87,-0.35c-0.44,-0.17 -0.88,-0.33 -1.31,-0.48l-0.82,-0.28c-0.45,-0.14 -0.9,-0.27 -1.34,-0.39l-0.73,-0.2c-0.5,-0.12 -1,-0.22 -1.49,-0.32l-0.53,-0.11c-0.67,-0.12 -1.33,-0.21 -2,-0.27l0,0a23.71,23.71 0 0 0 -12,1.84c0.2,-4.78 1,-8.72 2.68,-11.16l-0.41,-0.14l-0.14,0.14s-0.49,0.11 -1.26,0.25a10.44,10.44 0 0 0 -0.65,1.21a13.91,13.91 0 0 1 1.91,-4.76l-0.41,-0.14c0.59,-0.61 2.73,-3.24 -0.14,-7.55c-3.3,-4.94 -9.34,-1.1 -9.34,-1.1a25.56,25.56 0 0 0 -0.94,5c-0.46,-0.19 -0.79,-0.33 -1,-0.44a124.5,124.5 0 0 0 -4.69,31.36c-10.89,15.46 -15.39,38.28 -16.27,43.2l0,0l-0.07,0.39l0,0c-0.06,0.36 -0.09,0.55 -0.09,0.55l28.31,0.66c0,0.1 0,0.19 0,0.29l0,44.83l-20.61,43.59s7.84,0.25 19.64,1.76l-3.26,23.31l0,0l-1.09,6.54l19.62,0c2.18,-4.36 -8.72,-6.54 -8.72,-6.54l-0.24,0l4.25,-21.75q2.82,0.47 5.8,1a56.81,56.81 0 0 0 8.83,1l0,0a46.94,46.94 0 0 0 7.35,-0.32c1.44,11.79 -0.45,18.83 -0.81,20l-0.11,0l-1.09,6.54l19.62,0c1.9,-3.8 -6.14,-5.95 -8.23,-6.43l0.09,-0.64a109.41,109.41 0 0 0 0.77,-22.2a26.87,26.87 0 0 0 7,-4.17l0,0l0.27,-0.24l0,0l0.08,-0.08l-14.61,-41c2.73,-11.6 -6.77,-23.78 -1.7,-29.87s2,-13.86 1.4,-15.19c13.72,-6 41.45,-21 49.23,-47a49.17,49.17 0 0 0 1.39,-5.57s3.92,-1.59 2.22,-7.28z"/>
  </g>
  <path id="svg_102" fill="#ff5252" d="m40.08,336.46s-14.87,46.91 10.07,72.88l7.2,-5.51s-14.74,-51.2 -6.49,-63.22c-14.56,-4.85 -10.78,-4.15 -10.78,-4.15z"/>
  <path id="svg_103" fill="#f6b9ad" d="m50.36,340.6s3,-2.52 0,-7.06s-8.57,-1 -8.57,-1s-2,6.55 0,8.06s8.57,0 8.57,0z"/>
  <rect id="svg_104" transform="rotate(180 279.91 875.71)" fill="#f6b9ad" ry="7.06" rx="7.06" height="20.91" width="14.11" y="1350.35002" x="490.06"/>
  <path id="svg_105" opacity="0.2" fill="#fff" d="m56.34,406.85s-14.56,-50.57 -6.63,-63c0.7,-0.13 1.15,-0.23 1.15,-0.23l0.13,-0.12l0.37,0.12c-8.25,12 6.49,63.22 6.49,63.22l-7.2,5.51l-0.63,-0.68l6.32,-4.82z"/>
  <circle id="svg_106" fill="#f6b9ad" r="15.62" cy="371.85" cx="62.45"/>
  <path id="svg_107" opacity="0.2" fill="#fff" d="m68,394.02l0,-6.8a7,7 0 0 0 -0.16,-1.48a15.62,15.62 0 0 0 -6.26,-29.49l0.88,0a15.62,15.62 0 0 1 7.15,29.51a7,7 0 0 1 0.16,1.48l0,6.8a7,7 0 0 1 -7.94,7a7.08,7.08 0 0 0 6.17,-7.02z"/>
  <path id="svg_108" fill="#ff5252" d="m46.58,449.7s30.13,3.4 31.24,0c3.6,-11 -6,-22.89 -1.2,-28.7c5,-6 1.2,-14.13 1.2,-14.13a15.62,15.62 0 0 0 -15.62,-15.62l0,0a15.62,15.62 0 0 0 -15.62,15.62l0,42.83z"/>
  <path id="svg_109" opacity="0.2" fill="#fff" d="m76.66,421c5,-6 1.2,-14.13 1.2,-14.13a15.62,15.62 0 0 0 -15.62,-15.62c-0.34,0 -0.67,0 -1,0.05a15.61,15.61 0 0 1 14.62,15.57s3.8,8.13 -1.2,14.13c-4.84,5.81 4.8,17.69 1.2,28.7c-0.34,1.05 -3.45,1.45 -7.58,1.51c5.09,0.05 9.19,-0.29 9.58,-1.51c3.64,-11.02 -6.04,-22.89 -1.2,-28.7z"/>
  <path id="svg_110" fill="#f6b9ad" d="m71.43,448.7l0,0c11,15.59 15.87,39.15 12.72,61.81l-0.09,0.68l-9.39,0s2.91,-8.57 0,-23.68a37.39,37.39 0 0 0 -14.24,-22.68l-9.06,46.36l-8.74,0l8.74,-62.49l20.06,0z"/>
  <path id="svg_111" fill="#f6b9ad" d="m124.39,358.83s3.63,-1.52 2.07,-6.75s-7.9,-3.47 -7.9,-3.47s-3.85,5.67 -2.36,7.71s8.19,2.51 8.19,2.51z"/>
  <path id="svg_112" fill="#ff5252" d="m70.94,409.39s46.81,-15.17 53.44,-50.56l-8.67,-2.66s-34.45,38.46 -49,38.73s4.23,14.49 4.23,14.49z"/>
  <path id="svg_113" opacity="0.2" fill="#fff" d="m122.79,358.87l1.45,0.44c-6.63,35.39 -53.44,50.56 -53.44,50.56l-0.83,-0.65c5.53,-1.92 46.64,-17.34 52.82,-50.35z"/>
  <g id="svg_114" opacity="0.2">
   <path id="svg_115" fill="#fff" d="m58.42,464.83l-9.06,46.36l2,0l8.8,-45a21.63,21.63 0 0 0 -1.74,-1.36z"/>
   <path id="svg_116" fill="#fff" d="m71.43,448.7l-2,0c11,15.59 15.87,39.15 12.72,61.81l-0.09,0.68l2,0l0.09,-0.68c3.15,-22.66 -1.7,-46.22 -12.72,-61.81z"/>
  </g>
  <path id="svg_117" opacity="0.2" fill="#fff" d="m123.42,358.52s3.63,-1.52 2.07,-6.75a4.83,4.83 0 0 0 -2.9,-3.29a4.9,4.9 0 0 1 3.86,3.58c1.56,5.22 -2.07,6.75 -2.07,6.75a27.32,27.32 0 0 1 -5.86,-1.1a29.83,29.83 0 0 0 4.9,0.81z"/>
  <path id="svg_118" fill="#263238" d="m46.58,448l-19,40a235,235 0 0 1 33,4c21,4 31,-6 31,-6l-13.55,-38l-31.45,0z"/>
  <path id="svg_119" fill="#ff5252" d="m51.62,511s10,2 8,6l-18,0l1,-6l9,0z"/>
  <path id="svg_120" fill="#ff5252" d="m83.62,511s10,2 8,6l-18,0l1,-6l9,0z"/>
  <path id="svg_121" fill="#fccc63" d="m76.62,359s-24,34 -13,48l-43,-1s12,-77 56,-47z"/>
  <path id="svg_122" opacity="0.2" fill="#fff" d="m76.62,359c-6.2,-4.23 -11.76,-6.33 -16.75,-6.82a42.33,42.33 0 0 1 11.75,5.82s-24,34 -13,48l-37.85,-0.88c-0.1,0.57 -0.15,0.88 -0.15,0.88l43,1c-11,-14 13,-48 13,-48z"/>
  <path id="svg_123" opacity="0.2" fill="#fff" d="m78.08,448l-3,0l13.55,38s-6.46,6.45 -19.9,6.91c15.47,0.5 22.9,-6.91 22.9,-6.91l-13.55,-38z"/>
  <path id="svg_124" opacity="0.2" fill="#fff" d="m51.62,511l-2,0s10,2 8,6l2,0c2,-4 -8,-6 -8,-6z"/>
  <path id="svg_125" opacity="0.2" fill="#fff" d="m83.62,511l-2,0s10,2 8,6l2,0c2,-4 -8,-6 -8,-6z"/>
  <rect id="svg_126" fill="#f5f5f5" height="14.5" width="383" y="167.68" x="500.62"/>
  <rect id="svg_127" fill="url(#9a3d7bb1-47c0-4ca8-a076-fba8f746a389)" height="496" width="398" y="163.05" x="493"/>
  <rect id="svg_128" fill="#fff" height="459.5" width="383" y="182.18" x="500.62"/>
  <circle id="svg_129" fill="#ff5252" r="3.5" cy="175.18" cx="509.5"/>
  <circle id="svg_130" fill="#ff0" r="3.5" cy="175.18" cx="519.12"/>
  <circle id="svg_131" fill="#69f0ae" r="3.5" cy="175.18" cx="528.75"/>
  <g id="svg_132" opacity="0.2">
   <rect stroke="#6415ff" id="svg_133" fill="none" height="9" width="336" y="202.68" x="524.62"/>
  </g>
  <rect id="svg_134" fill="url(#89aca64f-6823-4107-b0e5-363f57c50e19)" height="154" width="145" y="241.68" x="522.62"/>
  <rect id="svg_135" fill="#fff" height="144" width="139" y="246.68" x="525.62"/>
  <rect id="svg_136" fill="url(#244838b0-6b94-4a4f-974c-f4ebcd2d6e43)" height="154" width="145" y="318.68" x="715.62"/>
  <rect id="svg_137" fill="#fff" height="144" width="139" y="323.68" x="718.62"/>
  <rect id="svg_138" fill="url(#a95129aa-3a9b-452b-80f4-39c8b969ae6a)" height="106" width="341" y="508.68" x="525.62"/>
  <rect id="svg_139" opacity="0.5" fill="#34d399" height="95" width="328" y="515.68" x="532.62"/>
  <polygon id="svg_140" opacity="0.5" fill="#fff" points="540.62 524.68 860.62 524.68 860.62 515.68 532.62 515.68 532.62 610.68 540.62 610.68 540.62 524.68"/>
  <path id="svg_141" fill="url(#09992bb0-0588-4d4c-95c8-1ad271d94435)" transform="translate(-154.5 -94.48)" d="m796.09,372.71a62,62 0 1 0 15,40.45a61.84,61.84 0 0 0 -15,-40.45zm-25,77.47a43,43 0 1 1 21.08,-37a42.81,42.81 0 0 1 -21.05,37l-0.03,0z"/>
  <path id="svg_142" fill="#ff5252" d="m625.67,291.94l13.65,-11.75a58.85,58.85 0 0 0 -44.7,-20.51l0,18a40.91,40.91 0 0 1 31.05,14.26z"/>
  <path id="svg_143" fill="#69f0ae" d="m594.62,359.67a40.74,40.74 0 0 1 -16.92,-3.67l-7.43,16.41a59,59 0 0 0 54.49,-3l-9.2,-15.49a40.74,40.74 0 0 1 -20.94,5.75z"/>
  <path id="svg_144" fill="#ff9800" d="m653.62,318.67a58.75,58.75 0 0 0 -14.3,-38.49l-13.65,11.75a40.93,40.93 0 0 1 -10.11,62l9.2,15.49a59,59 0 0 0 28.86,-50.75z"/>
  <path id="svg_145" fill="#6415ff" d="m553.62,318.67a41,41 0 0 1 41,-41l0,-18a59,59 0 0 0 -24.35,112.74l7.43,-16.41a41,41 0 0 1 -24.08,-37.33z"/>
  <rect id="svg_146" fill="url(#e976fbab-c7be-4f98-b33a-a56658b85843)" height="18" width="106" y="344.68" x="737.62"/>
  <rect id="svg_147" fill="#6415ff" height="16" width="104" y="345.68" x="738.62"/>
  <rect id="svg_148" fill="#ff5252" height="16" width="76" y="372.68" x="738.62"/>
  <rect id="svg_149" fill="#69f0ae" height="16" width="52" y="399.68" x="738.62"/>
  <rect id="svg_150" fill="#ff9800" height="16" width="94" y="426.68" x="738.62"/>
  <rect id="svg_151" fill="#f5f5f5" height="9" width="149" y="419.68" x="525.62"/>
  <rect id="svg_152" fill="#f5f5f5" height="9" width="84" y="434.68" x="525.62"/>
  <rect id="svg_153" fill="#f5f5f5" height="9" width="29" y="434.68" x="624.62"/>
  <rect id="svg_154" fill="#f5f5f5" height="9" width="29" y="467.68" x="624.62"/>
  <rect id="svg_155" fill="#f5f5f5" height="9" width="84" y="464.68" x="525.62"/>
  <rect id="svg_156" fill="#f5f5f5" height="9" width="149" y="449.68" x="525.62"/>
  <rect id="svg_157" fill="#f5f5f5" height="9" width="149" y="242.68" x="713.62"/>
  <rect id="svg_158" fill="#f5f5f5" height="9" width="84" y="257.68" x="713.62"/>
  <rect id="svg_159" fill="#f5f5f5" height="9" width="29" y="257.68" x="812.62"/>
  <rect id="svg_160" fill="#f5f5f5" height="9" width="29" y="290.68" x="812.62"/>
  <rect id="svg_161" fill="#f5f5f5" height="9" width="84" y="287.68" x="713.62"/>
  <rect id="svg_162" fill="#f5f5f5" height="9" width="149" y="272.68" x="713.62"/>
  <circle id="svg_163" fill="url(#294b6eda-21ba-4cef-8333-d7c4aaac1d9e)" r="11" cy="688.68" cx="760.62"/>
  <circle id="svg_164" fill="#ff5252" r="8" cy="688.68" cx="760.62"/>
  <rect id="svg_165" fill="url(#065b80c5-77d7-4835-9968-dbf0ab7011d1)" height="121" width="344" y="566.68" x="435.62"/>
  <rect id="svg_166" fill="#fff" height="95" width="328" y="571.68" x="445.62"/>
  <line id="svg_167" fill="url(#2a3369eb-9ffa-44ee-b4f3-0d72059a1e3a)" stroke-width="3" stroke-miterlimit="10" stroke="#6415ff" y2="648.68" x2="760.62" y1="648.68" x1="456.62"/>
  <rect id="svg_168" fill="url(#327d5fd3-480a-4895-a6c0-ce7eb7e65eff)" height="55" width="45" y="590.68" x="459.62"/>
  <rect id="svg_169" fill="#6415ff" height="51" width="40" y="593.18" x="462.12"/>
  <rect id="svg_170" fill="#69f0ae" height="16" width="40" y="629.68" x="712.62"/>
  <rect id="svg_171" fill="#ff9800" height="36" width="40" y="608.68" x="637.62"/>
  <rect id="svg_172" fill="#ff5252" height="30" width="40" y="614.68" x="549.62"/>
  <rect id="svg_173" fill="#ff5252" height="14" width="328" y="666.68" x="445.62"/>
  <circle id="svg_174" fill="url(#47ebed85-0f1a-4564-9c94-c36bbc13acdd)" r="11" cy="688.68" cx="459.62"/>
  <circle id="svg_175" fill="#ff5252" r="8" cy="688.68" cx="459.62"/>
  <rect id="svg_176" fill="#ff5252" height="105" width="8" y="575.68" x="437.62"/>
  <rect id="svg_177" opacity="0.2" height="105" width="8" y="575.68" x="437.62"/>
  <path id="svg_178" fill="url(#2b699f83-9fbb-4b6d-8a24-a3f0d4476570)" transform="translate(-154.5 -94.48)" d="m600.65,681.32c0,-0.11 0,-0.21 0,-0.32s0,-0.33 0,-0.49s0,-0.21 -0.06,-0.31s-0.07,-0.3 -0.12,-0.44s-0.06,-0.19 -0.1,-0.29s-0.12,-0.28 -0.18,-0.42l-0.12,-0.25c-0.08,-0.14 -0.17,-0.28 -0.26,-0.41l-0.13,-0.19a6.62,6.62 0 0 0 -0.42,-0.52l0,0l0,0a9.62,9.62 0 0 0 -2.79,-2.06a8.05,8.05 0 0 0 1.79,-3.08a6.42,6.42 0 0 0 0.24,-0.94c0,-0.1 0,-0.2 0,-0.29a5.46,5.46 0 0 0 0.05,-0.58c0,-0.11 0,-0.21 0,-0.32s0,-0.33 0,-0.49s0,-0.21 -0.06,-0.31s-0.07,-0.3 -0.12,-0.44s-0.06,-0.19 -0.1,-0.29s-0.12,-0.28 -0.18,-0.42l-0.12,-0.25c-0.08,-0.14 -0.17,-0.28 -0.26,-0.41l-0.13,-0.19a6.62,6.62 0 0 0 -0.42,-0.52l0,0l0,0a10.07,10.07 0 0 0 -3.55,-2.4s-6.35,2.35 -6.77,4.93c-4.66,1 -31.82,6.65 -50.47,6.2l-0.14,-0.37a16.59,16.59 0 0 0 -8.83,-14.67l0,-6.28a7.48,7.48 0 0 0 0,-0.8l0,0a7.41,7.41 0 0 0 -0.12,-0.76l0.12,-0.07l0.51,-0.28l0.74,-0.45l0.47,-0.31q0.52,-0.36 1,-0.76l0.38,-0.33c0.23,-0.2 0.45,-0.4 0.67,-0.61l0.39,-0.38q0.41,-0.42 0.78,-0.86l0.27,-0.34q0.35,-0.44 0.67,-0.9l0.27,-0.41q0.29,-0.45 0.56,-0.92l0.17,-0.3c0.22,-0.4 0.42,-0.82 0.6,-1.24l0.15,-0.38q0.21,-0.51 0.38,-1l0.12,-0.37c0.14,-0.46 0.26,-0.92 0.36,-1.39c0,-0.09 0,-0.19 0.05,-0.28q0.11,-0.6 0.18,-1.21c0,-0.14 0,-0.27 0,-0.41c0,-0.5 0.08,-1 0.08,-1.51a16.51,16.51 0 0 0 -2.13,-8.11c1.07,-0.26 1.72,-0.47 1.64,-0.57c-0.41,-0.55 -0.82,-1.07 -1.25,-1.57l-0.41,-0.47c-0.3,-0.34 -0.59,-0.66 -0.89,-1l-0.48,-0.49c-0.3,-0.3 -0.6,-0.58 -0.9,-0.85l-0.47,-0.42c-0.38,-0.32 -0.76,-0.63 -1.14,-0.93l-0.25,-0.2c-0.46,-0.34 -0.92,-0.66 -1.39,-1l-0.52,-0.32c-0.3,-0.19 -0.61,-0.37 -0.92,-0.53l-0.62,-0.32l-0.86,-0.41l-0.63,-0.28c-0.3,-0.13 -0.61,-0.24 -0.92,-0.35l-0.57,-0.21c-0.46,-0.15 -0.92,-0.29 -1.38,-0.41l-0.71,-0.16l-0.77,-0.16l-0.77,-0.12l-0.71,-0.08l-0.79,-0.07l-0.68,0l-0.79,0q-0.65,0 -1.3,0.06l0,0c-10.23,0.84 -19.19,9.77 -19.19,24l0,11.74l16,0l0,5.34a16.59,16.59 0 0 0 -9.64,15.05l0,45.51l-13.58,62.39l-0.18,0l-2.67,11.91l19.16,3.1l0,0l0.83,0.13c2,-0.86 -1.35,-4.89 -2.86,-8a8.54,8.54 0 0 1 -0.4,-1a7.57,7.57 0 0 1 -0.38,-1.94l14.72,-48.29l-0.07,0l0.35,-1.13s18.74,8 23.56,24.09c3.91,13 1.48,21.46 0.42,24.2l-0.07,0l0,0.16c-0.21,0.52 -0.36,0.81 -0.36,0.81l0.36,0l0,8.83l20.26,0c1.88,-0.95 -2.11,-3.72 -4.1,-6a5.67,5.67 0 0 1 -1.32,-2.55l0.34,0l0.16,-0.72a69.53,69.53 0 0 0 -20.86,-65.77a0.77,0.77 0 0 0 0.09,-0.17a74.45,74.45 0 0 0 3.51,-18.06c15.49,1.48 36.1,0.42 51.51,-11.52a48,48 0 0 0 4.21,-3.58c1.33,-0.1 3.66,-0.84 4.95,-4.6a6.42,6.42 0 0 0 0.24,-0.94c0,-0.1 0,-0.2 0,-0.29a5.46,5.46 0 0 0 0.07,-0.64z"/>
  <path id="svg_179" fill="#34d399" d="m364.99,604.46s46.9,14.91 72.88,-10l-5.51,-7.21s-50.4,11.23 -62.41,3s-4.96,14.21 -4.96,14.21z"/>
  <path id="svg_180" opacity="0.2" fill="#fff" d="m436.55,593.52l0.92,1.2c-26,24.92 -72.88,10 -72.88,10s-0.12,-0.38 -0.3,-1c5.59,1.67 48.02,13.08 72.26,-10.2z"/>
  <path id="svg_181" fill="#985454" d="m436.87,594.45s3.84,0.87 5.61,-4.28s-4.4,-7.42 -4.4,-7.42s-6.43,2.37 -6.41,4.89s5.2,6.81 5.2,6.81z"/>
  <path id="svg_182" opacity="0.2" fill="#fff" d="m436.26,593.64s3.84,0.87 5.61,-4.28a4.83,4.83 0 0 0 -0.45,-4.36a4.9,4.9 0 0 1 1.06,5.16c-1.77,5.16 -5.61,4.28 -5.61,4.28a27.32,27.32 0 0 1 -4.12,-4.31a29.83,29.83 0 0 0 3.51,3.51z"/>
  <path fill="#34d399" d="m387.2,687.27l13.89,0a4.56,4.56 0 0 0 1.31,3.57c1.87,2.16 5.63,4.77 3.86,5.66l-19.06,0l0,-9.23z" data-name="&lt;Path&gt;" id="4635430b-7803-4f1f-9770-b56b2b482545"/>
  <path id="svg_183" opacity="0.2" fill="#fff" d="m401.39,690.84a4.56,4.56 0 0 1 -1.31,-3.57l1,0a4.56,4.56 0 0 0 1.31,3.57c1.87,2.16 5.63,4.77 3.86,5.66l-1,0c1.77,-0.89 -1.99,-3.49 -3.86,-5.66z"/>
  <path fill="#34d399" d="m337.73,684.41l13,2.13a6.62,6.62 0 0 0 0.59,4.58c1.42,3 4.61,6.74 2.69,7.55l-18.82,-3l2.54,-11.26z" data-name="&lt;Path&gt;" id="a892faa3-7b18-4010-9d55-72c2aac7ddb8"/>
  <path id="svg_184" opacity="0.2" fill="#fff" d="m350.33,691.11a6.62,6.62 0 0 1 -0.59,-4.58l-12.05,-2l0,-0.16l13,2.13a6.62,6.62 0 0 0 0.59,4.58c1.42,3 4.61,6.74 2.69,7.55l-0.79,-0.13c1.48,-0.98 -1.49,-4.57 -2.85,-7.39z"/>
  <rect id="svg_185" transform="rotate(180 887.91 1227.71)" fill="#985454" ry="7.06" rx="7.06" height="20.91" width="14.11" y="1878.34996" x="1402.05997"/>
  <circle id="svg_186" fill="#985454" r="15.62" cy="547.85" cx="366.45"/>
  <path id="svg_187" opacity="0.2" fill="#fff" d="m372,570.02l0,-6.8a7,7 0 0 0 -0.16,-1.48a15.62,15.62 0 0 0 -6.26,-29.49l0.88,0a15.62,15.62 0 0 1 7.15,29.51a7,7 0 0 1 0.16,1.48l0,6.8a7,7 0 0 1 -7.94,7a7.08,7.08 0 0 0 6.17,-7.02z"/>
  <path id="svg_188" fill="#34d399" d="m350.58,625.7s30.13,3.4 31.24,0c7.81,-23.94 0,-42.83 0,-42.83a15.62,15.62 0 0 0 -15.62,-15.62l0,0a15.62,15.62 0 0 0 -15.62,15.62l0,42.83z"/>
  <path id="svg_189" fill="#263238" d="m350.58,625.7l-13.61,62.49l13.61,0l14.11,-46.36s17.64,7.56 22.17,22.68s0,23.68 0,23.68l14.64,0l0.15,-0.68a65,65 0 0 0 -19.8,-61.81l0,0"/>
  <path id="svg_190" opacity="0.2" fill="#fff" d="m380.06,625.7c7.81,-23.94 0,-42.83 0,-42.83a15.62,15.62 0 0 0 -14.61,-15.59c0.33,0 0.67,0 1,0l0,0a15.62,15.62 0 0 1 15.62,15.62s7.81,18.9 0,42.83c-0.4,1.22 -4.52,1.56 -9.64,1.51c4.16,-0.09 7.29,-0.49 7.63,-1.54z"/>
  <g id="svg_191" opacity="0.2">
   <path id="svg_192" fill="#fff" d="m364.43,642.93l-13.85,45.51l-2,0l14.11,-46.36s0.65,0.28 1.74,0.85z"/>
   <path id="svg_193" fill="#fff" d="m379.81,625.95l2,0a65,65 0 0 1 19.8,61.81l-0.15,0.68l-2,0l0.15,-0.68a65,65 0 0 0 -19.8,-61.81z"/>
  </g>
  <path id="svg_194" fill="#34d399" d="m362.99,594.46s46.9,14.91 72.88,-10l-5.51,-7.21s-50.4,11.23 -62.41,3s-4.96,14.21 -4.96,14.21z"/>
  <path id="svg_195" opacity="0.2" fill="#fff" d="m434.55,583.52l0.92,1.2c-26,24.92 -72.88,10 -72.88,10s-0.12,-0.38 -0.3,-1c5.59,1.67 48.02,13.08 72.26,-10.2z"/>
  <path id="svg_196" fill="#985454" d="m434.87,584.45s3.84,0.87 5.61,-4.28s-4.4,-7.42 -4.4,-7.42s-6.43,2.37 -6.41,4.89s5.2,6.81 5.2,6.81z"/>
  <path id="svg_197" opacity="0.2" fill="#fff" d="m434.26,583.64s3.84,0.87 5.61,-4.28a4.83,4.83 0 0 0 -0.45,-4.36a4.9,4.9 0 0 1 1.06,5.16c-1.77,5.16 -5.61,4.28 -5.61,4.28a27.32,27.32 0 0 1 -4.12,-4.31a29.83,29.83 0 0 0 3.51,3.51z"/>
  <path id="svg_198" fill="#263238" d="m367.62,542.67l-1,21l-22,0l0,-11.15c0,-22.39 23.67,-30.89 37,-12.9c0.33,0.49 -14,3.05 -14,3.05z"/>
  <path id="svg_199" opacity="0.2" fill="#fff" d="m362.68,530.01c5.61,0.46 11.38,3.52 15.94,9.67c0.33,0.44 -14,3 -14,3l-1,21l3,0l1,-21s14.33,-2.56 14,-3c-5.37,-7.26 -12.43,-10.16 -18.94,-9.67z"/>
 </g>
</svg>