<svg width="781.43" height="756.44" xmlns="http://www.w3.org/2000/svg" xmlns:xlink="http://www.w3.org/1999/xlink" data-name="Layer 1">
 <defs>
  <linearGradient y2="0.00004" x2="0.5" y1="1" x1="0.5" id="b3f40125-0363-42ff-a31c-61eb5d655202">
   <stop stop-opacity="0.25" stop-color="gray" offset="0"/>
   <stop stop-opacity="0.12" stop-color="gray" offset="0.54"/>
   <stop stop-opacity="0.1" stop-color="gray" offset="1"/>
  </linearGradient>
  <linearGradient xlink:href="#b3f40125-0363-42ff-a31c-61eb5d655202" y2="258.44" x2="385.08" y1="490.21" x1="385.08" id="27ca4b3e-9552-41ad-8ba5-de2574048d20"/>
  <linearGradient xlink:href="#b3f40125-0363-42ff-a31c-61eb5d655202" y2="0.51" x2="384.97" y1="232.29" x1="384.97" id="98d2c4cc-353c-49f3-ae94-49dceb95b558"/>
  <linearGradient xlink:href="#b3f40125-0363-42ff-a31c-61eb5d655202" y2="0" x2="661.23" y1="231.77" x1="661.23" id="1b187342-85ad-4174-acd7-e912b9a9009d"/>
  <linearGradient xlink:href="#b3f40125-0363-42ff-a31c-61eb5d655202" y2="250.85" x2="115.89" y1="482.62" x1="115.89" id="5629c76b-b43c-4c6e-ad7d-c063ce4611c3"/>
  <linearGradient xlink:href="#b3f40125-0363-42ff-a31c-61eb5d655202" y2="263.7" x2="665.55" y1="495.47" x1="665.55" id="94554b54-cbd9-41c5-8f29-6b4786d89c61"/>
  <linearGradient xlink:href="#b3f40125-0363-42ff-a31c-61eb5d655202" y2="511.38" x2="116.72" y1="743.15" x1="116.72" id="897c833c-fa4a-4dad-90f9-1cb0d950ec3f"/>
  <linearGradient xlink:href="#b3f40125-0363-42ff-a31c-61eb5d655202" y2="524.67" x2="392.03" y1="756.44" x1="392.03" id="b88de7bb-a3e6-477b-a3c4-5c16e389ed83"/>
 </defs>
 <title>team</title>
 <g>
  <title>Layer 1</title>
  <g id="svg_1" opacity="0.5">
   <circle id="svg_2" fill="url(#b3f40125-0363-42ff-a31c-61eb5d655202)" r="115.89" cy="122.09" cx="116.72"/>
  </g>
  <circle id="svg_3" fill="#f5f5f5" r="113.44" cy="121.46" cx="116.72"/>
  <path id="svg_4" fill="#34d399" d="m117.04,235.22a112.91,112.91 0 0 0 62.36,-18.66c-4.18,-22.84 -20.09,-24.15 -20.09,-24.15l-87.71,0s-15,1.23 -19.7,22.25a112.92,112.92 0 0 0 65.14,20.56z"/>
  <circle id="svg_5" fill="#333" r="50.29" cy="118.96" cx="115.85"/>
  <path id="svg_6" opacity="0.1" d="m98.18,164.57l35.09,0a0,0 0 0 1 0,0l0,28.07a17.54,17.54 0 0 1 -17.54,17.54l0,0a17.54,17.54 0 0 1 -17.54,-17.54l0,-28.07a0,0 0 0 1 -0.01,0z"/>
  <path id="svg_7" fill="#be7c5e" d="m101.53,163.27l28.39,0a3.35,3.35 0 0 1 3.35,3.35l0,24.72a17.54,17.54 0 0 1 -17.54,17.54l0,0a17.54,17.54 0 0 1 -17.54,-17.54l0,-24.72a3.35,3.35 0 0 1 3.34,-3.35z"/>
  <path id="svg_8" opacity="0.1" d="m98.25,177.82a50.5,50.5 0 0 0 35.09,0.1l0,-4.31l-35.09,0l0,4.21z"/>
  <circle id="svg_9" fill="#be7c5e" r="50.29" cy="129.88" cx="115.85"/>
  <path id="svg_10" fill="#333" d="m85.38,109.14c0.59,-2.17 1.33,-4.56 3.28,-5.69c1.54,-0.9 3.45,-0.76 5.23,-0.67c13.9,0.76 27.68,-2.41 41.2,-5.72c7.73,-1.89 16,-4.19 21,-10.42s-1.52,-25.81 -9.13,-28.12c-5,-1.53 -10.8,1.32 -15.54,-0.92c-2.11,-1 -3.66,-2.87 -5.48,-4.33c-3.73,-3 -8.52,-4.21 -13.16,-5.35c-5.42,-1.34 -11.28,-2.65 -16.43,-0.5c-4,1.66 -6.92,5.17 -10.71,7.25c-7.21,4 -16,2.14 -24.26,2.12c-2.79,0 -6.12,0.56 -7.23,3.12c-0.75,1.74 -0.15,3.72 -0.07,5.61c0.24,6 -4.71,10.67 -8.86,15s-8.07,10.51 -5.45,15.89c1,2.05 2.83,3.6 3.87,5.63c1.79,3.52 0.89,7.77 1.54,11.66a29.34,29.34 0 0 0 3.27,8.4c3.08,6 18.55,38.3 25.66,30.09c3.44,-4 4,-15.56 5.39,-20.76q2.88,-11.21 5.88,-22.29z"/>
  <ellipse id="svg_11" fill="#be7c5e" ry="8.77" rx="4.68" cy="128.05" cx="80.07"/>
  <g id="svg_12" opacity="0.5">
   <circle id="svg_13" fill="url(#27ca4b3e-9552-41ad-8ba5-de2574048d20)" r="115.89" cy="374.32" cx="385.08"/>
  </g>
  <circle id="svg_14" fill="#f5f5f5" r="113.44" cy="373.58" cx="385.3"/>
  <path id="svg_15" fill="#34d399" d="m385.4,487.47a112.91,112.91 0 0 0 62.32,-18.66c-4.18,-22.84 -20.09,-24.15 -20.09,-24.15l-87.68,0s-15,1.23 -19.7,22.25a112.92,112.92 0 0 0 65.15,20.56z"/>
  <circle id="svg_16" fill="#f55f44" r="54.76" cy="371.19" cx="384.2"/>
  <path id="svg_17" opacity="0.1" d="m366.53,416.8l35.09,0a0,0 0 0 1 0,0l0,28.07a17.54,17.54 0 0 1 -17.54,17.54l0,0a17.54,17.54 0 0 1 -17.54,-17.54l0,-28.07a0,0 0 0 1 -0.01,0z"/>
  <path id="svg_18" fill="#fda57d" d="m369.88,415.5l28.39,0a3.35,3.35 0 0 1 3.35,3.35l0,24.72a17.54,17.54 0 0 1 -17.54,17.54l0,0a17.54,17.54 0 0 1 -17.54,-17.54l0,-24.72a3.35,3.35 0 0 1 3.35,-3.35l-0.01,0z"/>
  <path id="svg_19" opacity="0.1" d="m366.6,430.05a50.5,50.5 0 0 0 35.09,0.1l0,-4.31l-35.09,0l0,4.21z"/>
  <circle id="svg_20" fill="#fda57d" r="50.29" cy="382.11" cx="384.2"/>
  <circle id="svg_21" fill="#f55f44" r="20.24" cy="315.49" cx="384.13"/>
  <circle id="svg_22" fill="#f55f44" r="13.29" cy="295.56" cx="384.13"/>
  <path id="svg_23" fill="#f55f44" d="m375.35,326.59a20.24,20.24 0 0 1 -10.55,-25.88c-0.14,0.28 -0.28,0.57 -0.41,0.86a20.24,20.24 0 1 0 36.94,16.57c0.13,-0.29 0.25,-0.58 0.37,-0.88a20.24,20.24 0 0 1 -26.35,9.33z"/>
  <path id="svg_24" opacity="0.1" d="m348.39,336.37s21.19,43 81,18l-13.92,-21.83l-24.67,-8.86l-42.41,12.69z"/>
  <path id="svg_25" fill="#f55f44" d="m348.39,335.73s21.19,43 81,18l-13.92,-21.83l-24.67,-8.86l-42.41,12.69z"/>
  <path id="svg_26" fill="#333" d="m364.72,320.07a249.85,249.85 0 0 1 39.18,0s-28.94,2.69 -39.18,0z"/>
  <path id="svg_27" fill="#f55f44" d="m387.17,281.46a13.32,13.32 0 0 0 -3,0.23l0.77,0a13.28,13.28 0 0 1 2,26.33a13.28,13.28 0 0 0 0.24,-26.56l-0.01,0z"/>
  <ellipse id="svg_28" fill="#fda57d" ry="8.77" rx="4.68" cy="382.06" cx="333.9"/>
  <ellipse id="svg_29" fill="#fda57d" ry="8.77" rx="4.68" cy="382.06" cx="434.49"/>
  <polygon id="svg_30" fill="#f55f44" points="345.22 337 355.03 331.94 357.24 340.05 351.23 344.14 345.22 337"/>
  <g id="svg_31" opacity="0.5">
   <circle id="svg_32" fill="url(#98d2c4cc-353c-49f3-ae94-49dceb95b558)" r="115.89" cy="116.4" cx="384.97"/>
  </g>
  <circle id="svg_33" fill="#f5f5f5" r="113.44" cy="115.77" cx="384.97"/>
  <path id="svg_34" fill="#333" d="m340.72,116.78s-12.86,63.36 -19.88,59.85c0,0 67.7,58.48 127.48,0c0,0 -10.53,-44.65 -25.73,-59.85l-81.87,0z"/>
  <path id="svg_35" fill="#34d399" d="m385.29,229.55a112.91,112.91 0 0 0 62.36,-18.66c-4.18,-22.84 -20.09,-24.15 -20.09,-24.15l-87.72,0s-15,1.23 -19.7,22.25a112.92,112.92 0 0 0 65.15,20.56z"/>
  <circle id="svg_36" fill="#333" r="50.29" cy="113.27" cx="384.09"/>
  <path id="svg_37" opacity="0.1" d="m366.42,158.88l35.09,0a0,0 0 0 1 0,0l0,28.07a17.54,17.54 0 0 1 -17.51,17.54l0,0a17.54,17.54 0 0 1 -17.54,-17.54l0,-28.07a0,0 0 0 1 -0.04,0z"/>
  <path id="svg_38" fill="#be7c5e" d="m369.77,157.58l28.39,0a3.35,3.35 0 0 1 3.35,3.35l0,24.72a17.54,17.54 0 0 1 -17.51,17.54l0,0a17.54,17.54 0 0 1 -17.54,-17.54l0,-24.73a3.35,3.35 0 0 1 3.31,-3.34z"/>
  <path id="svg_39" opacity="0.1" d="m366.49,172.13a50.5,50.5 0 0 0 35.09,0.1l0,-4.31l-35.09,0l0,4.21z"/>
  <circle id="svg_40" fill="#be7c5e" r="50.29" cy="124.18" cx="384.09"/>
  <path id="svg_41" fill="#333" d="m336.02,105.08l95.9,0s-8.19,-38.72 -44.44,-36.25s-51.46,36.25 -51.46,36.25z"/>
  <ellipse id="svg_42" fill="#be7c5e" ry="8.77" rx="4.68" cy="122.04" cx="334.84"/>
  <ellipse id="svg_43" fill="#be7c5e" ry="8.77" rx="4.68" cy="122.04" cx="433.08"/>
  <path id="svg_44" opacity="0.1" d="m336.02,106.38l95.9,0s-8.19,-38.72 -44.44,-36.25s-51.46,36.25 -51.46,36.25z"/>
  <g id="svg_45" opacity="0.5">
   <circle id="svg_46" fill="url(#1b187342-85ad-4174-acd7-e912b9a9009d)" r="115.89" cy="115.89" cx="661.23"/>
  </g>
  <circle id="svg_47" fill="#f5f5f5" r="113.44" cy="115.14" cx="661.45"/>
  <path id="svg_48" fill="#34d399" d="m661.55,229.04a112.91,112.91 0 0 0 62.36,-18.66c-4.19,-22.85 -20.09,-24.16 -20.09,-24.16l-87.71,0s-15,1.23 -19.7,22.25a112.92,112.92 0 0 0 65.14,20.57z"/>
  <circle id="svg_49" fill="#72351c" r="54.76" cy="112.75" cx="660.36"/>
  <path id="svg_50" opacity="0.1" d="m642.68,158.36l35.09,0a0,0 0 0 1 0,0l0,28.07a17.54,17.54 0 0 1 -17.54,17.57l0,0a17.54,17.54 0 0 1 -17.54,-17.54l0,-28.1a0,0 0 0 1 -0.01,0z"/>
  <path id="svg_51" fill="#fda57d" d="m646,157.06l28.39,0a3.35,3.35 0 0 1 3.35,3.35l0,24.72a17.54,17.54 0 0 1 -17.54,17.54l0,0a17.54,17.54 0 0 1 -17.54,-17.54l0,-24.72a3.35,3.35 0 0 1 3.35,-3.35l-0.01,0z"/>
  <path id="svg_52" opacity="0.1" d="m642.72,171.61a50.5,50.5 0 0 0 35.09,0.1l0,-4.31l-35.09,0l0,4.21z"/>
  <circle id="svg_53" fill="#fda57d" r="50.29" cy="123.67" cx="660.36"/>
  <path id="svg_54" opacity="0.1" d="m624.54,77.93s21.19,43 81,18l-13.92,-21.83l-24.67,-8.86l-42.41,12.69z"/>
  <path id="svg_55" fill="#72351c" d="m624.54,77.3s21.19,43 81,18l-13.92,-21.83l-24.67,-8.86l-42.41,12.69z"/>
  <path id="svg_56" fill="#72351c" d="m624.35,74.39a29.05,29.05 0 0 1 7.2,-11.71c9.89,-9.78 26.11,-11.84 34.43,-23a6.51,6.51 0 0 1 -3,9.18c8,-0.05 17.21,-0.75 21.71,-7.31a14.91,14.91 0 0 1 -2.51,15.74c7.06,0.32 14.6,5.11 15.06,12.17c0.3,4.7 -2.64,9.15 -6.51,11.85s-8.53,3.91 -13.13,4.91c-13.42,3 -62.01,15.41 -53.25,-11.83z"/>
  <path id="svg_57" fill="#72351c" d="m710.65,124.11l-1.33,0l-25.94,23.11c-25,-11.7 -43.34,0 -43.34,0l-27.2,-22.14l-2.74,0.34a50.29,50.29 0 0 0 100.56,-1.29l-0.01,-0.02zm-50.36,31.95c-9.78,0 -17.71,-2 -17.71,-4.43s7.93,-4.43 17.71,-4.43s17.71,2 17.71,4.43s-7.93,4.43 -17.72,4.43l0.01,0z"/>
  <ellipse id="svg_58" fill="#fda57d" ry="8.77" rx="4.68" cy="123.62" cx="610.05"/>
  <ellipse id="svg_59" fill="#fda57d" ry="8.77" rx="4.68" cy="123.62" cx="710.64"/>
  <g id="svg_60" opacity="0.5">
   <circle id="svg_61" fill="url(#5629c76b-b43c-4c6e-ad7d-c063ce4611c3)" r="115.89" cy="366.73" cx="115.89"/>
  </g>
  <circle id="svg_62" fill="#f5f5f5" r="113.44" cy="365.99" cx="116.11"/>
  <path id="svg_63" fill="#34d399" d="m116.21,479.88a112.91,112.91 0 0 0 62.35,-18.66c-4.18,-22.84 -20.09,-24.15 -20.09,-24.15l-87.75,0s-15,1.23 -19.7,22.25a112.92,112.92 0 0 0 65.19,20.56z"/>
  <circle id="svg_64" fill="#333" r="54.76" cy="363.6" cx="115.01"/>
  <path id="svg_65" opacity="0.1" d="m97.34,409.21l35.09,0a0,0 0 0 1 0,0l0,28.07a17.54,17.54 0 0 1 -17.54,17.54l0,0a17.54,17.54 0 0 1 -17.54,-17.54l0,-28.07a0,0 0 0 1 -0.01,0z"/>
  <path id="svg_66" fill="#fdb797" d="m100.69,407.91l28.39,0a3.35,3.35 0 0 1 3.35,3.35l0,24.74a17.54,17.54 0 0 1 -17.54,17.54l0,0a17.54,17.54 0 0 1 -17.55,-17.54l0,-24.75a3.35,3.35 0 0 1 3.35,-3.35l0,0.01z"/>
  <path id="svg_67" opacity="0.1" d="m97.41,422.46a50.5,50.5 0 0 0 35.09,0.1l0,-4.34l-35.09,0l0,4.24z"/>
  <circle id="svg_68" fill="#fdb797" r="50.29" cy="374.52" cx="115.01"/>
  <path id="svg_69" opacity="0.1" d="m79.2,328.77s21.19,43 81,18l-13.92,-21.83l-24.67,-8.86l-42.41,12.69z"/>
  <path id="svg_70" fill="#333" d="m79.2,328.14s21.19,43 81,18l-13.92,-21.83l-24.67,-8.86l-42.41,12.69z"/>
  <path id="svg_71" fill="#333" d="m79.01,325.22a29.05,29.05 0 0 1 7.2,-11.71c9.89,-9.78 26.11,-11.84 34.43,-23a6.51,6.51 0 0 1 -3,9.18c8,-0.05 17.21,-0.75 21.71,-7.31a14.91,14.91 0 0 1 -2.51,15.74c7.06,0.32 14.6,5.11 15.06,12.17c0.3,4.7 -2.64,9.15 -6.51,11.85s-8.54,3.93 -13.14,4.95c-13.42,2.98 -62,15.39 -53.24,-11.87z"/>
  <ellipse id="svg_72" fill="#fdb797" ry="8.77" rx="4.68" cy="374.47" cx="64.7"/>
  <ellipse id="svg_73" fill="#fdb797" ry="8.77" rx="4.68" cy="374.47" cx="165.29"/>
  <g id="svg_74" opacity="0.5">
   <circle id="svg_75" fill="url(#94554b54-cbd9-41c5-8f29-6b4786d89c61)" r="115.89" cy="379.58" cx="665.55"/>
  </g>
  <circle id="svg_76" fill="#f5f5f5" r="113.44" cy="378.95" cx="665.55"/>
  <path id="svg_77" fill="#34d399" d="m665.87,492.73a112.91,112.91 0 0 0 62.36,-18.66c-4.18,-22.84 -20.09,-24.15 -20.09,-24.15l-87.72,0s-15,1.23 -19.7,22.25a112.92,112.92 0 0 0 65.15,20.56z"/>
  <path id="svg_78" opacity="0.1" d="m647,422.06l35.09,0a0,0 0 0 1 0,0l0,28.07a17.54,17.54 0 0 1 -17.54,17.54l0,0a17.54,17.54 0 0 1 -17.55,-17.54l0,-28.07a0,0 0 0 1 0,0z"/>
  <path id="svg_79" fill="#fdb797" d="m650.35,420.76l28.39,0a3.35,3.35 0 0 1 3.35,3.35l0,24.72a17.54,17.54 0 0 1 -17.54,17.54l0,0a17.54,17.54 0 0 1 -17.55,-17.54l0,-24.72a3.35,3.35 0 0 1 3.35,-3.35z"/>
  <path id="svg_80" opacity="0.1" d="m647.07,435.31a50.5,50.5 0 0 0 35.09,0.1l0,-4.31l-35.09,0l0,4.21z"/>
  <circle id="svg_81" fill="#fdb797" r="50.29" cy="387.37" cx="664.67"/>
  <ellipse id="svg_82" fill="#fdb797" ry="8.77" rx="4.68" cy="385.22" cx="615.42"/>
  <ellipse id="svg_83" fill="#fdb797" ry="8.77" rx="4.68" cy="385.22" cx="713.66"/>
  <rect id="svg_84" stroke-width="2" stroke-miterlimit="10" stroke="#333" fill="none" ry="4.35" rx="4.35" height="10.76" width="21.51" y="387.61" x="634.03"/>
  <rect id="svg_85" transform="rotate(180 1578.42 857.75)" stroke-width="2" stroke-miterlimit="10" stroke="#333" fill="none" ry="4.35" rx="4.35" height="10.76" width="21.51" y="1317.14" x="2461.52004"/>
  <path id="svg_86" stroke-width="2" stroke-miterlimit="10" stroke="#333" fill="none" d="m654.72,388.65s6.82,-3.7 19.5,0"/>
  <path id="svg_87" fill="#858585" d="m699.44,350.92l12.34,28.67s15.09,-19.02 -12.34,-28.67z"/>
  <line id="svg_88" stroke-width="2" stroke-linejoin="round" stroke-linecap="round" stroke="#333" fill="none" y2="376.54" x2="713.74" y1="392.99" x1="695.32"/>
  <path id="svg_89" fill="#858585" d="m629.92,350.92l-12.34,28.67s-15.09,-19.02 12.34,-28.67z"/>
  <line id="svg_90" stroke-width="2" stroke-linejoin="round" stroke-linecap="round" stroke="#333" fill="none" y2="376.54" x2="615.36" y1="392.99" x1="634.03"/>
  <g id="svg_91" opacity="0.5">
   <circle id="svg_92" fill="url(#897c833c-fa4a-4dad-90f9-1cb0d950ec3f)" r="115.89" cy="627.26" cx="116.72"/>
  </g>
  <circle id="svg_93" fill="#f5f5f5" r="113.44" cy="626.63" cx="116.72"/>
  <path id="svg_94" fill="#fdd835" d="m179.47,636.83c0,41.78 -27.26,88.29 -60.89,88.29s-60.86,-46.51 -60.86,-88.29s27.26,-63 60.89,-63s60.86,21.23 60.86,63z"/>
  <path id="svg_95" fill="#34d399" d="m117.04,740.42a112.91,112.91 0 0 0 62.36,-18.66c-4.18,-22.84 -20.09,-24.15 -20.09,-24.15l-87.71,0s-15,1.23 -19.7,22.25a112.92,112.92 0 0 0 65.14,20.56z"/>
  <path id="svg_96" opacity="0.1" d="m98.18,669.74l35.09,0a0,0 0 0 1 0,0l0,28.07a17.54,17.54 0 0 1 -17.54,17.54l0,0a17.54,17.54 0 0 1 -17.54,-17.54l0,-28.07a0,0 0 0 1 -0.01,0z"/>
  <path id="svg_97" fill="#fdb797" d="m101.53,668.44l28.39,0a3.35,3.35 0 0 1 3.35,3.35l0,24.72a17.54,17.54 0 0 1 -17.54,17.54l0,0a17.54,17.54 0 0 1 -17.54,-17.54l0,-24.72a3.35,3.35 0 0 1 3.34,-3.35z"/>
  <path id="svg_98" opacity="0.1" d="m98.25,682.99a50.5,50.5 0 0 0 35.09,0.1l0,-4.31l-35.09,0l0,4.21z"/>
  <circle id="svg_99" fill="#fdb797" r="50.29" cy="635.05" cx="115.85"/>
  <ellipse id="svg_100" fill="#fdb797" ry="8.77" rx="4.68" cy="632.9" cx="66.6"/>
  <ellipse id="svg_101" fill="#fdb797" ry="8.77" rx="4.68" cy="632.9" cx="164.84"/>
  <path id="svg_102" opacity="0.1" d="m71.29,607.77s28.43,38.91 93.63,25.62c0,0 7.28,-8.86 -10.44,-36.06s-67.06,-22.77 -83.19,10.44z"/>
  <path id="svg_103" fill="#fdd835" d="m71.29,607.14s28.43,38.91 93.63,25.62c0,0 7.28,-8.86 -10.44,-36.06s-67.06,-22.77 -83.19,10.44z"/>
  <g id="svg_104" opacity="0.5">
   <circle id="svg_105" fill="url(#b88de7bb-a3e6-477b-a3c4-5c16e389ed83)" r="115.89" cy="640.55" cx="392.03"/>
  </g>
  <circle id="svg_106" fill="#f5f5f5" r="113.44" cy="639.81" cx="392.26"/>
  <path id="svg_107" fill="#333" d="m454.67,650.99c0,37.74 -27.11,56.31 -62.32,56.31s-65.16,-18.57 -65.16,-56.31s28.54,-68.33 63.74,-68.33s63.74,30.56 63.74,68.33z"/>
  <path id="svg_108" fill="#34d399" d="m392.35,753.7a112.91,112.91 0 0 0 62.37,-18.66c-4.18,-22.84 -20.09,-24.15 -20.09,-24.15l-87.72,0s-15,1.23 -19.7,22.25a112.92,112.92 0 0 0 65.14,20.56z"/>
  <path id="svg_109" opacity="0.1" d="m373.49,683l35.09,0a0,0 0 0 1 0,0l0,28.07a17.54,17.54 0 0 1 -17.58,17.57l0,0a17.54,17.54 0 0 1 -17.54,-17.54l0,-28.1a0,0 0 0 1 0.03,0z"/>
  <path id="svg_110" fill="#fda57d" d="m376.83,681.73l28.39,0a3.35,3.35 0 0 1 3.35,3.35l0,24.72a17.54,17.54 0 0 1 -17.57,17.54l0,0a17.54,17.54 0 0 1 -17.54,-17.54l0,-24.73a3.35,3.35 0 0 1 3.35,-3.35l0.02,0.01z"/>
  <path id="svg_111" opacity="0.1" d="m373.56,696.28a50.5,50.5 0 0 0 35.09,0.1l0,-4.31l-35.09,0l0,4.21z"/>
  <circle id="svg_112" fill="#fda57d" r="50.29" cy="648.33" cx="391.16"/>
  <path id="svg_113" opacity="0.1" d="m333.2,651.62s31.32,-3.8 55,-34.16c0,0 31.32,34.48 53.14,30.68c0,0 12.65,-13.29 0,-26.57s-22.46,-30.05 -39.22,-27.84s-37.33,3.16 -46.18,11.07s-22.74,46.82 -22.74,46.82z"/>
  <path id="svg_114" fill="#333" d="m333.2,650.99s31.32,-3.8 55,-34.16c0,0 31.32,34.48 53.14,30.68c0,0 12.65,-13.29 0,-26.57s-22.46,-30.05 -39.22,-27.84s-37.29,3.12 -46.14,11.12s-22.78,46.77 -22.78,46.77z"/>
  <ellipse id="svg_115" fill="#fda57d" ry="8.77" rx="4.68" cy="648.29" cx="340.85"/>
  <ellipse id="svg_116" fill="#fda57d" ry="8.77" rx="4.68" cy="648.29" cx="441.44"/>
 </g>
</svg>